<?xml version="1.0" encoding="UTF-8" standalone="no"?>
<svg
   xmlns:dc="http://purl.org/dc/elements/1.1/"
   xmlns:cc="http://creativecommons.org/ns#"
   xmlns:rdf="http://www.w3.org/1999/02/22-rdf-syntax-ns#"
   xmlns:svg="http://www.w3.org/2000/svg"
   xmlns="http://www.w3.org/2000/svg"
   xmlns:sodipodi="http://sodipodi.sourceforge.net/DTD/sodipodi-0.dtd"
   xmlns:inkscape="http://www.inkscape.org/namespaces/inkscape"
   width="793.70081"
   height="1122.5197"
   viewBox="0 0 210 297"
   version="1.1"
   id="svg8"
   inkscape:version="1.0.1 (3bc2e813f5, 2020-09-07)"
   sodipodi:docname="banner-image.svg">
  <defs
     id="defs2">
    <inkscape:path-effect
       effect="fillet_chamfer"
       id="path-effect860"
       is_visible="true"
       lpeversion="1"
       satellites_param="F,0,0,1,0,7.4083333,0,1 @ F,0,0,1,0,7.4083333,0,1 @ F,0,0,1,0,7.4083333,0,1 @ F,0,0,1,0,7.4083333,0,1"
       unit="px"
       method="auto"
       mode="F"
       radius="28"
       chamfer_steps="1"
       flexible="false"
       use_knot_distance="true"
       apply_no_radius="true"
       apply_with_radius="true"
       only_selected="false"
       hide_knots="false" />
    <inkscape:path-effect
       effect="fillet_chamfer"
       id="path-effect854"
       is_visible="true"
       lpeversion="1"
       satellites_param="F,0,0,1,0,2.6458333,0,1 @ F,0,0,1,0,2.6458333,0,1 @ F,0,0,1,0,2.6458333,0,1 @ F,0,0,1,0,2.6458333,0,1"
       unit="px"
       method="auto"
       mode="F"
       radius="10"
       chamfer_steps="1"
       flexible="false"
       use_knot_distance="true"
       apply_no_radius="true"
       apply_with_radius="true"
       only_selected="false"
       hide_knots="false" />
    <inkscape:path-effect
       effect="fillet_chamfer"
       id="path-effect850"
       is_visible="true"
       lpeversion="1"
       satellites_param="F,0,0,1,0,0.79375,0,1 @ F,0,0,1,0,0.79375,0,1 @ F,0,0,1,0,0.79375,0,1 @ F,0,0,1,0,0.79375,0,1"
       unit="px"
       method="auto"
       mode="F"
       radius="3"
       chamfer_steps="1"
       flexible="false"
       use_knot_distance="true"
       apply_no_radius="true"
       apply_with_radius="true"
       only_selected="false"
       hide_knots="false" />
    <inkscape:path-effect
       effect="fillet_chamfer"
       id="path-effect844"
       is_visible="true"
       lpeversion="1"
       satellites_param="F,0,0,1,0,3.0427083,0,1 @ F,0,0,1,0,3.0427083,0,1 @ F,0,0,1,0,3.0427083,0,1 @ F,0,0,1,0,3.0427083,0,1"
       unit="px"
       method="auto"
       mode="F"
       radius="11.5"
       chamfer_steps="1"
       flexible="false"
       use_knot_distance="true"
       apply_no_radius="true"
       apply_with_radius="true"
       only_selected="false"
       hide_knots="false" />
    <inkscape:path-effect
       effect="fillet_chamfer"
       id="path-effect837"
       is_visible="true"
       lpeversion="1"
       satellites_param="F,0,0,1,0,3.0427083,0,1 @ F,0,0,1,0,3.0427083,0,1 @ F,0,0,1,0,3.0427083,0,1 @ F,0,0,1,0,3.0427083,0,1"
       unit="px"
       method="auto"
       mode="F"
       radius="11.5"
       chamfer_steps="1"
       flexible="false"
       use_knot_distance="true"
       apply_no_radius="true"
       apply_with_radius="true"
       only_selected="false"
       hide_knots="false" />
  </defs>
  <sodipodi:namedview
     id="base"
     pagecolor="#ffffff"
     bordercolor="#666666"
     borderopacity="1.0"
     inkscape:pageopacity="0.0"
     inkscape:pageshadow="2"
     inkscape:zoom="0.82297123"
     inkscape:cx="410.96163"
     inkscape:cy="139.50494"
     inkscape:document-units="mm"
     inkscape:current-layer="layer1"
     inkscape:document-rotation="0"
     showgrid="true"
     inkscape:pagecheckerboard="true"
     units="px"
     showborder="false"
     inkscape:window-width="1500"
     inkscape:window-height="938"
     inkscape:window-x="-6"
     inkscape:window-y="-6"
     inkscape:window-maximized="1"
     inkscape:snap-grids="false"
     inkscape:snap-midpoints="false"
     inkscape:snap-smooth-nodes="false"
     inkscape:object-paths="true"
     inkscape:object-nodes="true"
     inkscape:snap-object-midpoints="false" />
  <metadata
     id="metadata5">
    <rdf:RDF>
      <cc:Work
         rdf:about="">
        <dc:format>image/svg+xml</dc:format>
        <dc:type
           rdf:resource="http://purl.org/dc/dcmitype/StillImage" />
        <dc:title></dc:title>
      </cc:Work>
    </rdf:RDF>
  </metadata>
  <g
     inkscape:label="Layer 1"
     inkscape:groupmode="layer"
     id="layer1">
    <path
       id="path839"
       style="fill:#3e3748;stroke:none;stroke-width:19.9;stroke-linecap:butt;stroke-linejoin:miter;stroke-miterlimit:4;stroke-dasharray:none;stroke-opacity:1"
       d="m 605.45703,-81.957031 a 19.918583,19.918583 0 0 0 -9.88086,2.667969 l -403.86719,233.171872 -37.78515,6.72071 0.008,18.90429 a 6.6395278,6.6395278 0 0 0 0,0.004 6.6395278,6.6395278 0 0 0 3.32031,5.76562 L 382.8205,315.50986 a 19.918584,19.918584 0 0 0 19.91992,0 L 841.06445,62.443359 a 6.6395282,6.6395282 0 0 0 3.32032,-5.742187 V 37.804688 L 824.44922,41.349609 615.49609,-79.289062 a 19.918583,19.918583 0 0 0 -10.03906,-2.667969 z"
       transform="scale(0.26458333)" />
    <path
       style="fill:#7c6f91;stroke:none;stroke-width:5.26521;stroke-linecap:butt;stroke-linejoin:miter;stroke-miterlimit:4;stroke-dasharray:none;stroke-opacity:1"
       d="m 41.606206,44.021353 59.681784,34.457291 a 5.2701254,5.2701254 -180 0 0 5.27012,0 l 115.97343,-66.95729 a 1.7567085,1.7567085 90.000001 0 0 0,-3.0427082 L 162.84976,-25.978646 a 5.2701252,5.2701252 1.2344565e-6 0 0 -5.27012,0 L 41.606206,40.978645 a 1.7567084,1.7567084 90 0 0 0,3.042708 z"
       id="path835" />
    <path
       style="fill:#3e3748;stroke:none;stroke-width:0.264583px;stroke-linecap:butt;stroke-linejoin:miter;stroke-opacity:1"
       d="M 106.55811,76.478645 212.13924,15.521354 a 1.7567085,1.7567085 90.000001 0 0 0,-3.042708 l -56.21768,-32.457292 a 5.2701253,5.2701253 1.3050041e-6 0 0 -5.27012,0 L 45.070308,40.978645 a 1.7567084,1.7567084 90 0 0 0,3.042708 l 56.217682,32.457292 a 5.2701254,5.2701254 180 0 0 5.27012,0 z"
       id="path842" />
    <path
       id="path864"
       style="fill:#808080;stroke:none;stroke-width:0.999999px;stroke-linecap:butt;stroke-linejoin:miter;stroke-opacity:1"
       d="m 327.08008,-205.48828 a 16.165807,16.165807 0 0 0 -8.11719,2.20703 l -16.36523,9.44922 -0.21094,0.125 8.56445,14.71875 v 160.437499 a 48.49742,48.49742 0 0 0 24.24805,42 l 140.85937,81.324221 7.58985,13.04492 15.00781,-8.6543 a 16.165808,16.165808 0 0 0 1.17578,-0.67773 16.165808,16.165808 0 0 0 7.50977,-13.652346 V -75.9375 a 48.497424,48.497424 0 0 0 -5.01758,-21.480469 48.497424,48.497424 0 0 0 0,-0.002 h -0.002 A 48.497424,48.497424 0 0 0 483.0918,-117.9375 l -147.89258,-85.38477 a 16.165807,16.165807 0 0 0 -8.11914,-2.16601 z"
       transform="scale(0.26458333)" />
    <path
       style="fill:#5d536c;stroke:none;stroke-width:0.264583px;stroke-linecap:butt;stroke-linejoin:miter;stroke-opacity:1"
       d="m 182.64131,-7.5934476 8.15146,4.70625 a 1.3748164,1.3748164 1.818933e-5 0 0 1.37482,5e-7 l 1.22326,-0.7062509 a 0.45827142,0.45827142 90.000018 0 0 0,-0.7937495 l -8.15146,-4.7062501 a 1.3748164,1.3748164 1.7587881e-5 0 0 -1.37482,-4e-7 l -1.22326,0.7062508 a 0.45827143,0.45827143 90.000017 0 0 0,0.7937496 z"
       id="path848" />
    <path
       style="fill:#9d93ac;stroke:none;stroke-width:0.264583px;stroke-linecap:butt;stroke-linejoin:miter;stroke-opacity:1"
       d="m 165.10413,-16.677084 a 4.3325872,4.3325872 178.0711 0 0 4.33013,-0.145832 1.4507238,1.4507238 84.230676 0 0 -0.25259,-2.5 4.3325872,4.3325872 178.0711 0 0 -4.33013,0.145832 1.4507238,1.4507238 84.230676 0 0 0.25259,2.5 z"
       id="path852" />
    <path
       style="fill:#3e3748;stroke:none;stroke-width:0.104534px;stroke-linecap:butt;stroke-linejoin:miter;stroke-opacity:1"
       d="m 166.3374,-17.47733 a 1.7117601,1.7117601 0 0 0 1.71079,-0.05762 0.57316586,0.57316586 0 0 0 -0.0998,-0.987724 1.7117601,1.7117601 0 0 0 -1.71079,0.05762 0.57316586,0.57316586 0 0 0 0.0998,0.987724 z"
       id="path856" />
    <path
       style="fill:#000000;stroke:none;stroke-width:0.264583px;stroke-linecap:butt;stroke-linejoin:miter;stroke-opacity:1"
       d="M 123.48801,31.295832 84.358091,8.7041665 A 12.831609,12.831609 59.999999 0 1 77.942286,-2.4083333 V -47.591667 a 4.2772032,4.2772032 150 0 1 6.415805,-3.704166 l 39.129919,22.591666 a 12.83161,12.83161 60 0 1 6.4158,11.1125 v 45.183332 a 4.2772034,4.2772034 150 0 1 -6.4158,3.704167 z"
       id="path858" />
  </g>
</svg>
