<?xml version="1.0" encoding="UTF-8" standalone="no"?>
<svg
   xmlns:dc="http://purl.org/dc/elements/1.1/"
   xmlns:cc="http://creativecommons.org/ns#"
   xmlns:rdf="http://www.w3.org/1999/02/22-rdf-syntax-ns#"
   xmlns:svg="http://www.w3.org/2000/svg"
   xmlns="http://www.w3.org/2000/svg"
   xmlns:sodipodi="http://sodipodi.sourceforge.net/DTD/sodipodi-0.dtd"
   xmlns:inkscape="http://www.inkscape.org/namespaces/inkscape"
   width="600"
   height="600"
   viewBox="0 0 158.75 158.75"
   version="1.1"
   id="svg8"
   inkscape:version="1.0.1 (3bc2e813f5, 2020-09-07)"
   sodipodi:docname="Web_Banner.svg"
   inkscape:export-filename="F:\Workspace\saltfreesite\SaltFreeInteractive.github.io\assets\images\banner-background.png"
   inkscape:export-xdpi="96"
   inkscape:export-ydpi="96">
  <defs
     id="defs2">
    <inkscape:path-effect
       bendpath4="M -256.48874,299.42438 V 467.46735"
       bendpath3="M -256.48874,467.46735 H 218.30618"
       bendpath2="M 218.30618,299.42438 V 467.46735"
       bendpath1="M -256.48874,299.42438 H 218.30618"
       xx="true"
       yy="true"
       is_visible="true"
       id="path-effect1026"
       effect="envelope"
       lpeversion="0" />
    <inkscape:path-effect
       bendpath1-nodetypes="cc"
       bendpath4="M -2.6824795,2.3679333 V 123.94973"
       bendpath3="M -2.6824795,123.94973 H 200.36164"
       bendpath2="M 200.36164,2.3679333 V 123.94973"
       bendpath1="M 0,0 H 1"
       xx="true"
       yy="true"
       is_visible="true"
       id="path-effect5038"
       effect="envelope"
       lpeversion="0" />
    <filter
       inkscape:collect="always"
       style="color-interpolation-filters:sRGB"
       id="filter1226"
       x="-0.028770031"
       width="1.0575401"
       y="-0.028770031"
       height="1.0575401">
      <feGaussianBlur
         inkscape:collect="always"
         stdDeviation="25.37357"
         id="feGaussianBlur1228" />
    </filter>
  </defs>
  <sodipodi:namedview
     id="base"
     pagecolor="#ffffff"
     bordercolor="#666666"
     borderopacity="1.0"
     inkscape:pageopacity="0.0"
     inkscape:pageshadow="2"
     inkscape:zoom="0.98994949"
     inkscape:cx="36.762845"
     inkscape:cy="391.15542"
     inkscape:document-units="mm"
     inkscape:current-layer="layer1"
     inkscape:document-rotation="0"
     showgrid="false"
     inkscape:pagecheckerboard="true"
     units="px"
     inkscape:window-width="2560"
     inkscape:window-height="1417"
     inkscape:window-x="-8"
     inkscape:window-y="-8"
     inkscape:window-maximized="1"
     inkscape:snap-midpoints="false"
     inkscape:snap-intersection-paths="false"
     inkscape:snap-object-midpoints="false"
     inkscape:object-paths="true" />
  <metadata
     id="metadata5">
    <rdf:RDF>
      <cc:Work
         rdf:about="">
        <dc:format>image/svg+xml</dc:format>
        <dc:type
           rdf:resource="http://purl.org/dc/dcmitype/StillImage" />
        <dc:title></dc:title>
      </cc:Work>
    </rdf:RDF>
  </metadata>
  <g
     inkscape:label="Layer 1"
     inkscape:groupmode="layer"
     id="layer1">
    <g
       id="g1579"
       transform="matrix(0.20113413,0,0,0.20113413,-97.285569,3.7404428)">
      <path
         id="path1524"
         style="color:#000000;font-style:normal;font-variant:normal;font-weight:normal;font-stretch:normal;font-size:medium;line-height:normal;font-family:sans-serif;font-variant-ligatures:normal;font-variant-position:normal;font-variant-caps:normal;font-variant-numeric:normal;font-variant-alternates:normal;font-variant-east-asian:normal;font-feature-settings:normal;font-variation-settings:normal;text-indent:0;text-align:start;text-decoration:none;text-decoration-line:none;text-decoration-style:solid;text-decoration-color:#000000;letter-spacing:normal;word-spacing:normal;text-transform:none;writing-mode:lr-tb;direction:ltr;text-orientation:mixed;dominant-baseline:auto;baseline-shift:baseline;text-anchor:start;white-space:normal;shape-padding:0;shape-margin:0;inline-size:0;clip-rule:nonzero;display:inline;overflow:visible;visibility:visible;opacity:1;isolation:auto;mix-blend-mode:normal;color-interpolation:sRGB;color-interpolation-filters:linearRGB;solid-color:#000000;solid-opacity:1;vector-effect:none;fill:#000000;fill-opacity:1;fill-rule:nonzero;stroke:none;stroke-width:7.9375;stroke-linecap:round;stroke-linejoin:round;stroke-miterlimit:4;stroke-dasharray:none;stroke-dashoffset:0;stroke-opacity:1;paint-order:fill markers stroke;color-rendering:auto;image-rendering:auto;shape-rendering:auto;text-rendering:auto;enable-background:accumulate;stop-color:#000000;stop-opacity:1"
         d="m 584.69778,95.585795 c -3.20928,-2e-6 -5.93301,2.7243 -5.93301,5.933605 v 297.01612 c 0,3.20932 2.72373,5.93131 5.93301,5.93131 h 297.01671 c 3.20928,0 5.9313,-2.72199 5.9313,-5.93131 V 101.5194 c 0,-3.209305 -2.72202,-5.933607 -5.9313,-5.933605 z m 2.96479,8.897795 h 291.08542 v 28.2198 H 587.66257 Z m 269.57661,4.45122 a 2.2244494,2.2244494 0 0 0 -1.5942,0.64995 2.2244494,2.2244494 0 0 0 0,3.14667 l 5.75694,5.75692 -5.75694,5.75692 a 2.2244494,2.2244494 0 0 0 0,3.1461 2.2244494,2.2244494 0 0 0 3.14668,0 l 5.75634,-5.75751 5.7575,5.75751 a 2.2244494,2.2244494 0 0 0 3.14376,0 2.2244494,2.2244494 0 0 0 0,-3.1461 l -5.75574,-5.75692 5.75574,-5.75692 a 2.2244494,2.2244494 0 0 0 0,-3.14667 2.2244494,2.2244494 0 0 0 -1.55188,-0.64995 2.2244494,2.2244494 0 0 0 -1.59188,0.64995 l -5.7575,5.7575 -5.75634,-5.7575 a 2.2244494,2.2244494 0 0 0 -1.55248,-0.64995 z M 587.66257,141.60119 H 878.74799 V 395.56903 H 587.66257 Z m 17.3727,12.14005 c -2.01543,0 -3.70625,1.69141 -3.70625,3.70684 v 74.69863 c 0,2.01544 1.69082,3.70625 3.70625,3.70625 h 74.69865 c 2.01542,0 3.70682,-1.69081 3.70682,-3.70625 v -74.69863 c 0,-2.01543 -1.6914,-3.70684 -3.70682,-3.70684 z m 99.67156,0 a 4.4488989,4.4488989 0 0 0 -4.4489,4.44889 4.4488989,4.4488989 0 0 0 4.4489,4.4489 h 156.99224 a 4.4488989,4.4488989 0 0 0 4.4489,-4.4489 4.4488989,4.4488989 0 0 0 -4.4489,-4.44889 z m -98.92892,4.44889 h 73.21393 v 73.21393 h -73.21393 z m 113.13355,14.61649 a 2.2244494,2.2244494 0 0 0 -2.22445,2.22445 2.2244494,2.2244494 0 0 0 2.22445,2.22445 h 145.75415 a 2.2244494,2.2244494 0 0 0 2.22444,-2.22445 2.2244494,2.2244494 0 0 0 -2.22444,-2.22445 z m -15.10252,11.29952 a 2.2244494,2.2244494 0 0 0 -2.22446,2.22444 2.2244494,2.2244494 0 0 0 2.22446,2.22446 h 160.85667 a 2.2244494,2.2244494 0 0 0 2.22444,-2.22446 2.2244494,2.2244494 0 0 0 -2.22444,-2.22444 z m 0,11.29776 a 2.2244494,2.2244494 0 0 0 -2.22446,2.22446 2.2244494,2.2244494 0 0 0 2.22446,2.22444 h 160.85667 a 2.2244494,2.2244494 0 0 0 2.22444,-2.22444 2.2244494,2.2244494 0 0 0 -2.22444,-2.22446 z m 0,11.29951 a 2.2244494,2.2244494 0 0 0 -2.22446,2.22445 2.2244494,2.2244494 0 0 0 2.22446,2.22444 h 160.85667 a 2.2244494,2.2244494 0 0 0 2.22444,-2.22444 2.2244494,2.2244494 0 0 0 -2.22444,-2.22445 z m -97.29129,39.84951 a 4.4488989,4.4488989 0 0 0 -4.4489,4.4489 4.4488989,4.4488989 0 0 0 4.4489,4.4489 h 156.99227 a 4.4488989,4.4488989 0 0 0 4.4489,-4.4489 4.4488989,4.4488989 0 0 0 -4.4489,-4.4489 z m 181.96518,0 c -2.01543,0 -3.70682,1.69139 -3.70682,3.70683 v 74.69863 c 0,2.01545 1.69139,3.70858 3.70682,3.70858 h 74.70037 c 2.01543,0 3.70685,-1.69313 3.70685,-3.70858 v -74.69863 c 0,-2.01544 -1.69142,-3.70683 -3.70685,-3.70683 z m 0.74208,4.4489 h 73.21624 v 73.21624 H 789.22491 Z M 603.55347,265.6183 a 2.2244494,2.2244494 0 0 0 -2.22445,2.22445 2.2244494,2.2244494 0 0 0 2.22445,2.22444 h 145.75357 a 2.2244494,2.2244494 0 0 0 2.22446,-2.22444 2.2244494,2.2244494 0 0 0 -2.22446,-2.22445 z m 0,11.29951 a 2.2244494,2.2244494 0 0 0 -2.22445,2.22445 2.2244494,2.2244494 0 0 0 2.22445,2.22445 H 764.4078 a 2.2244494,2.2244494 0 0 0 2.22444,-2.22445 2.2244494,2.2244494 0 0 0 -2.22444,-2.22445 z m 0,11.29951 a 2.2244494,2.2244494 0 0 0 -2.22445,2.22445 2.2244494,2.2244494 0 0 0 2.22445,2.22445 H 764.4078 a 2.2244494,2.2244494 0 0 0 2.22444,-2.22445 2.2244494,2.2244494 0 0 0 -2.22444,-2.22445 z m 0,11.29777 a 2.2244494,2.2244494 0 0 0 -2.22445,2.22444 2.2244494,2.2244494 0 0 0 2.22445,2.22446 H 764.4078 a 2.2244494,2.2244494 0 0 0 2.22444,-2.22446 2.2244494,2.2244494 0 0 0 -2.22444,-2.22444 z" />
      <path
         id="path1356"
         style="color:#000000;font-style:normal;font-variant:normal;font-weight:normal;font-stretch:normal;font-size:medium;line-height:normal;font-family:sans-serif;font-variant-ligatures:normal;font-variant-position:normal;font-variant-caps:normal;font-variant-numeric:normal;font-variant-alternates:normal;font-variant-east-asian:normal;font-feature-settings:normal;font-variation-settings:normal;text-indent:0;text-align:start;text-decoration:none;text-decoration-line:none;text-decoration-style:solid;text-decoration-color:#000000;letter-spacing:normal;word-spacing:normal;text-transform:none;writing-mode:lr-tb;direction:ltr;text-orientation:mixed;dominant-baseline:auto;baseline-shift:baseline;text-anchor:start;white-space:normal;shape-padding:0;shape-margin:0;inline-size:0;clip-rule:nonzero;display:inline;overflow:visible;visibility:visible;opacity:1;isolation:auto;mix-blend-mode:normal;color-interpolation:sRGB;color-interpolation-filters:linearRGB;solid-color:#000000;solid-opacity:1;vector-effect:none;fill:#000000;fill-opacity:1;fill-rule:nonzero;stroke:none;stroke-width:7.9375;stroke-linecap:round;stroke-linejoin:round;stroke-miterlimit:4;stroke-dasharray:none;stroke-dashoffset:0;stroke-opacity:1;paint-order:fill markers stroke;color-rendering:auto;image-rendering:auto;shape-rendering:auto;text-rendering:auto;enable-background:accumulate;stop-color:#000000;stop-opacity:1"
         d="m 574.92669,432.83503 c -9.73161,0.0389 -19.84589,3.13656 -28.32813,7.76241 -7.23818,3.94738 -13.40643,9.10199 -17.11667,15.30178 -2.64323,4.41677 -3.873,9.64126 -2.9387,14.73872 -1.59104,1.45799 -3.15359,2.95543 -4.6847,4.48654 a 4.4493437,4.4493437 0 0 0 -0.70728,0.91932 c -14.90036,25.80817 -23.35268,73.20609 -23.35268,101.93539 0,14.29511 1.37121,28.0165 5.68625,39.26501 4.31506,11.24851 12.11133,20.25598 24.01768,23.05434 7.39594,1.73825 14.28951,-0.51349 19.84743,-4.5016 5.55792,-3.98814 10.18741,-9.59106 14.64254,-15.42866 8.85304,-11.60012 17.33881,-23.91705 25.90965,-27.37406 26.45045,-7.01934 60.4732,-6.80785 86.1273,0 8.57071,3.45707 17.05443,15.77399 25.9073,27.37406 4.4551,5.83757 9.08527,11.44052 14.64314,15.42866 5.55785,3.98811 12.45095,6.23978 19.84683,4.5016 11.2922,-2.65392 19.49872,-9.09881 23.9499,-19.40717 4.45121,-10.30836 5.75637,-24.05327 5.75637,-42.91218 0,-22.94706 -8.87931,-76.86377 -23.3544,-101.93539 a 4.4493437,4.4493437 0 0 0 -0.70732,-0.91932 c -1.52914,-1.52914 -3.09103,-3.0273 -4.68234,-4.48829 0.93368,-5.09686 -0.29636,-10.32071 -2.93931,-14.73697 -3.71026,-6.19979 -9.88079,-11.3544 -17.11897,-15.30178 -9.04776,-4.93425 -19.95002,-8.12954 -30.26642,-7.72881 -5.74979,0.22334 -11.31628,1.56533 -16.27846,4.34406 h -75.63998 c -4.96206,-2.77858 -10.52879,-4.12072 -16.27842,-4.34406 -0.6448,-0.025 -1.29185,-0.0362 -1.94061,-0.0336 z m 0.17379,9.13183 c 4.09742,-0.0178 7.96941,0.58595 11.30703,1.90063 l -3.57997,9.87157 c -2.43295,-1.58946 -4.74821,-3.04275 -6.78341,-4.21776 a 4.4493437,4.4493437 0 0 0 -2.22445,-0.59781 c -14.10431,0 -26.70392,5.65912 -37.95062,13.98334 0.33079,-0.79087 0.74548,-1.59989 1.2472,-2.43824 2.54311,-4.2495 7.548,-8.68108 13.74292,-12.05951 7.35646,-4.0119 16.22418,-6.4074 24.2413,-6.44222 z m 111.73048,0 c 8.01712,0.0349 16.88482,2.43032 24.24131,6.44222 6.19489,3.37843 11.1975,7.81001 13.7406,12.05951 0.49446,0.82625 0.90595,1.62405 1.23445,2.40403 -11.1417,-8.26299 -23.69566,-13.94913 -37.93555,-13.94913 a 4.4493437,4.4493437 0 0 0 -2.22445,0.59781 c -2.15735,1.24554 -4.45563,2.67162 -6.79732,4.17954 l -3.5655,-9.83335 c 3.33762,-1.31462 7.20911,-1.91842 11.30646,-1.90063 z m -91.77186,4.14362 h 71.81324 l 4.59719,12.67936 c -10.38298,7.16235 -19.93636,14.54499 -21.27418,15.58155 h -38.47663 c -1.3223,-1.00346 -11.2321,-8.5081 -21.28925,-15.49464 z m 78.69688,11.11819 c -0.3595,0.2437 -0.71842,0.48768 -1.07691,0.73278 0.3588,-0.2451 0.71729,-0.48928 1.07691,-0.73278 z m 15.51378,0.67602 c 16.43936,0.43949 30.88544,10.03855 44.04063,23.08504 12.22495,21.67583 21.92473,76.73567 21.92473,96.98946 0,18.41203 -1.50591,31.23047 -5.02704,39.38492 -3.52113,8.15447 -8.45157,12.06945 -17.8176,14.27068 -4.72817,1.1112 -8.43126,-0.0585 -12.62432,-3.06731 -4.19309,-3.0088 -8.46619,-7.97807 -12.75526,-13.59813 -8.57813,-11.24007 -16.88455,-25.26933 -29.91653,-30.34982 a 4.4493437,4.4493437 0 0 0 -0.46399,-0.15352 c -27.6048,-7.39668 -62.884,-7.62188 -91.32931,0 a 4.4493437,4.4493437 0 0 0 -0.4663,0.15352 c -13.03207,5.08046 -21.33597,19.10975 -29.91422,30.34982 -4.28913,5.62006 -8.56446,10.58933 -12.75758,13.59813 -4.19311,3.00878 -7.89611,4.17855 -12.62431,3.06731 -8.75169,-2.05694 -14.09049,-8.04522 -17.74752,-17.57837 -3.65703,-9.53316 -5.09481,-22.37699 -5.09481,-36.07723 0,-26.69156 8.86609,-73.96208 21.90735,-96.97383 13.27032,-13.16023 27.86929,-22.65478 44.04932,-23.09836 11.60373,6.91134 34.91457,24.46026 34.91457,24.46026 a 4.4493437,4.4493437 0 0 0 2.68616,0.90193 h 41.42168 a 4.4493437,4.4493437 0 0 0 2.7261,-0.93263 c 0,0 21.27488,-16.38779 34.86825,-24.43187 z m -129.01113,15.83182 c -15.41887,0 -27.96316,12.54661 -27.96316,27.96551 0,15.41891 12.54429,27.96317 27.96316,27.96317 15.41891,0 27.96552,-12.54426 27.96552,-27.96317 0,-15.4189 -12.54661,-27.96551 -27.96552,-27.96551 z m 141.095,0 c -4.66254,0 -8.47552,3.81239 -8.47552,8.47491 0,4.66254 3.81298,8.4732 8.47552,8.4732 4.66255,0 8.47259,-3.81063 8.47259,-8.4732 0,-4.66252 -3.81004,-8.47491 -8.47259,-8.47491 z m 0,2.96653 c 3.05962,0 5.5061,2.44876 5.50607,5.50838 3e-5,3.05967 -2.44645,5.50667 -5.50607,5.50667 -3.05964,0 -5.50899,-2.447 -5.50899,-5.50667 0,-3.05962 2.44935,-5.50838 5.50899,-5.50838 z m -141.095,1.33523 c 13.09379,0 23.66317,10.56996 23.66317,23.66375 0,13.09379 -10.56938,23.66084 -23.66317,23.66084 -13.09379,0 -23.6614,-10.56705 -23.6614,-23.66084 0,-13.09379 10.56761,-23.66375 23.6614,-23.66375 z m 0,4.17315 c -10.73874,0 -19.49057,8.75182 -19.49057,19.4906 0,10.73879 8.75183,19.49001 19.49057,19.49001 10.73879,0 19.49001,-8.75122 19.49001,-19.49001 0,-10.73878 -8.75122,-19.4906 -19.49001,-19.4906 z m 0,4.30235 c 8.4137,0 15.18769,6.77455 15.18769,15.18825 0,8.4137 -6.77399,15.18765 -15.18769,15.18765 -8.41367,0 -15.18821,-6.77398 -15.18821,-15.18765 0,-8.41367 6.77454,-15.18825 15.18821,-15.18825 z m 124.14632,3.32337 c -4.66253,0 -8.47495,3.81062 -8.47495,8.47316 0,4.66257 3.81242,8.47551 8.47495,8.47551 4.66254,0 8.47316,-3.81294 8.47316,-8.47551 0,-4.66254 -3.81062,-8.47316 -8.47316,-8.47316 z m 34.10704,0 c -4.66254,0 -8.47317,3.81062 -8.47317,8.47316 0,4.66257 3.81063,8.47551 8.47317,8.47551 4.66253,0 8.47494,-3.81294 8.47494,-8.47551 0,-4.66254 -3.81241,-8.47316 -8.47494,-8.47316 z m -87.54597,0.84748 c -7.58763,0 -13.77189,6.18367 -13.77189,13.77129 0,7.58763 6.18426,13.76959 13.77189,13.76959 7.5876,0 13.76899,-6.18196 13.76899,-13.76959 0,-7.58762 -6.18139,-13.77129 -13.76899,-13.77129 z m 53.43893,2.1196 c 3.05962,0 5.50667,2.44646 5.50667,5.50608 0,3.05965 -2.44705,5.50841 -5.50667,5.50841 -3.05966,0 -5.50842,-2.44876 -5.50842,-5.50841 0,-3.05962 2.44876,-5.50608 5.50842,-5.50608 z m 34.10704,0 c 3.05965,0 5.50841,2.44646 5.50841,5.50608 0,3.05965 -2.44876,5.50841 -5.50841,5.50841 -3.05962,0 -5.50667,-2.44876 -5.50667,-5.50841 0,-3.05962 2.44705,-5.50608 5.50667,-5.50608 z m -87.54597,0.84693 c 5.98469,0 10.8048,4.82009 10.8048,10.80476 0,5.98473 -4.82011,10.8025 -10.8048,10.8025 -5.98471,0 -10.8048,-4.81777 -10.8048,-10.8025 0,-5.98467 4.82009,-10.80476 10.8048,-10.80476 z m 70.38761,12.07457 c -4.66254,0 -8.47552,3.81295 -8.47552,8.47551 0,4.66254 3.81298,8.47317 8.47552,8.47317 4.66255,0 8.47259,-3.81063 8.47259,-8.47317 0,-4.66256 -3.81006,-8.47551 -8.47259,-8.47551 z m 0,2.96709 c 3.05962,0 5.50607,2.44877 5.50607,5.50842 3e-5,3.05963 -2.44645,5.50611 -5.50607,5.50608 -3.05964,0 -5.50899,-2.44645 -5.50899,-5.50608 0,-3.05965 2.44935,-5.50842 5.50899,-5.50842 z m -32.93808,11.51093 c -15.41887,0 -27.96261,12.54661 -27.96261,27.96552 0,15.4189 12.54374,27.9632 27.96261,27.9632 15.4189,0 27.96551,-12.5443 27.96551,-27.9632 0,-15.41891 -12.54661,-27.96552 -27.96551,-27.96552 z m 0,4.30176 c 13.09379,0 23.66316,10.56997 23.66316,23.66376 0,13.09379 -10.56937,23.66085 -23.66316,23.66085 -13.09379,0 -23.66085,-10.56706 -23.66085,-23.66085 0,-13.09379 10.56706,-23.66376 23.66085,-23.66376 z m -72.51765,0.006 c -1.69986,0 -3.12464,1.42421 -3.12464,3.12408 v 13.44747 h -13.44923 c -1.69989,0 -3.12466,1.42421 -3.12466,3.12408 v 7.92171 c 0,1.69989 1.4248,3.12408 3.12466,3.12408 h 13.44923 v 13.44981 c 0,1.69987 1.42478,3.12408 3.12464,3.12408 h 7.92115 c 1.69986,0 3.12464,-1.42421 3.12464,-3.12408 v -13.44981 h 13.44691 c 1.69987,0 3.12468,-1.42422 3.12468,-3.12408 v -7.92171 c 0,-1.69984 -1.42478,-3.12408 -3.12468,-3.12408 h -13.44691 v -13.44747 c 0,-1.69987 -1.42478,-3.12408 -3.12464,-3.12408 z m 0.45996,3.58403 h 7.00123 v 14.78043 a 1.792277,1.792277 0 0 0 1.79116,1.79113 h 14.78099 v 7.00179 h -14.78099 a 1.792277,1.792277 0 0 0 -1.79116,1.79291 v 14.78099 h -7.00123 v -14.78099 a 1.792277,1.792277 0 0 0 -1.79344,-1.79291 h -14.78043 v -7.00179 h 14.78043 a 1.792277,1.792277 0 0 0 1.79344,-1.79113 z m 72.05769,0.58333 c -10.73875,0 -19.49,8.75179 -19.49,19.49058 0,10.73878 8.75125,19.48999 19.49,19.48999 10.73878,0 19.49,-8.75121 19.49,-19.48999 0,-10.73879 -8.75122,-19.49058 -19.49,-19.49058 z m 0,4.30233 c 8.41369,0 15.18824,6.77455 15.18824,15.18825 0,8.41369 -6.77455,15.18764 -15.18824,15.18764 -8.41367,0 -15.18765,-6.77397 -15.18765,-15.18764 0,-8.41368 6.77398,-15.18825 15.18765,-15.18825 z" />
      <g
         id="g924"
         inkscape:label="Background"
         style="display:inline;fill:#000000;stroke-width:0.892075;filter:url(#filter1226)"
         transform="matrix(0.17401445,0,0,0.17401445,724.8934,500.02125)">
        <rect
           style="opacity:1;fill:#000000;fill-opacity:1;stroke:none;stroke-width:50.6627;stroke-linecap:round;stroke-linejoin:round;stroke-miterlimit:4;stroke-dasharray:none;stroke-dashoffset:0"
           id="rect922"
           width="2116.6667"
           height="2116.6667"
           x="0"
           y="-1819.5668"
           inkscape:export-xdpi="96"
           inkscape:export-ydpi="96" />
      </g>
      <g
         id="layer3"
         inkscape:label="Background"
         style="display:inline;fill:#000000;stroke-width:0.892075"
         transform="matrix(0.17401445,0,0,0.17401445,724.8934,500.02125)">
        <rect
           style="opacity:1;fill:#000000;fill-opacity:1;stroke:none;stroke-width:50.6627;stroke-linecap:round;stroke-linejoin:round;stroke-miterlimit:4;stroke-dasharray:none;stroke-dashoffset:0"
           id="rect1701"
           width="2116.6667"
           height="2116.6667"
           x="0"
           y="-1819.5668"
           inkscape:export-xdpi="96"
           inkscape:export-ydpi="96" />
      </g>
      <g
         style="display:inline;stroke-width:0.892075"
         inkscape:label="Salt copy"
         id="g1971"
         transform="matrix(0.17401445,0,0,0.17401445,724.8934,500.02125)">
        <flowRoot
           xml:space="preserve"
           id="flowRoot1999"
           style="font-style:normal;font-weight:normal;font-size:192px;line-height:1.25;font-family:sans-serif;letter-spacing:0px;word-spacing:0px;fill:#ffffff;fill-opacity:1;stroke:none;stroke-width:0.892075"
           transform="scale(0.26458333)"><flowRegion
             id="flowRegion2001"
             style="font-size:192px;fill:#ffffff;stroke-width:0.892075"><rect
               id="rect2003"
               width="3406.2344"
               height="751.55347"
               x="-1272.7922"
               y="3474.1548"
               style="font-size:192px;fill:#ffffff;stroke-width:0.892075" /></flowRegion><flowPara
             id="flowPara2005"
             style="stroke-width:0.892075" /></flowRoot>
        <g
           aria-label="SALT FREE"
           transform="matrix(0.26458333,0,0,0.26458333,-15.990663,-40.435373)"
           style="font-style:normal;font-weight:normal;font-size:40px;line-height:1.25;font-family:sans-serif;letter-spacing:0px;word-spacing:0px;fill:#000000;fill-opacity:1;stroke:none;stroke-width:0.892075"
           id="flowRoot2007" />
        <g
           aria-label="INTERACTIVE"
           transform="matrix(0.80329594,0,0,0.80329594,1306.0126,-3161.7238)"
           style="font-style:normal;font-weight:normal;font-size:40px;line-height:1.25;font-family:sans-serif;letter-spacing:0px;word-spacing:0px;fill:#000000;fill-opacity:1;stroke:none;stroke-width:0.892075"
           id="flowRoot2037"
           inkscape:export-xdpi="96"
           inkscape:export-ydpi="96" />
        <g
           id="g4532"
           transform="matrix(1.5973279,0,0,1.5973279,-538.99459,1256.5815)"
           style="stroke-width:0.892075">
          <path
             sodipodi:nodetypes="scccccccccccccccccccsccccccccccccccccscccccccsccscccccccccccccccccccccccscccccccccccccccccccccsccccccccccccccccccccccccccccccccc"
             inkscape:export-ydpi="96"
             inkscape:export-xdpi="96"
             inkscape:connector-curvature="0"
             id="path1969"
             d="m 996.5547,-1799.5468 c -201.13977,0 -267.19831,78.3004 -279.0998,122.7177 -6.13492,22.8957 -8.05618,51.133 -3.8486,75.3983 2.10376,12.1328 5.67234,23.3538 12.20319,32.5304 3.86757,5.4343 9.23599,10.0925 15.54032,13.0002 -5.31378,16.4678 -11.88273,28.8488 -16.3154,39.6642 l 59.08619,57.4686 1.79955,-11.7089 h 428.15835 l 77.6734,505.44883 28.6692,27.88487 -82.4744,-536.7162 c 7.3924,-0.8793 13.5096,-2.163 18.7912,-4.0778 7.5953,-2.7534 14.9469,-9.0848 16.6997,-17.1139 1.7529,-8.0291 -0.583,-14.4008 -3.0546,-20.8669 -3.9904,-10.4389 -10.0566,-22.2181 -15.2548,-37.5933 7.0331,-3.3717 12.8491,-8.8655 16.808,-15.1528 6.5453,-10.395 9.686,-22.8657 11.3685,-35.9052 3.3649,-26.0792 0.5803,-54.4022 -4.2047,-72.2604 -5.5353,-20.6582 -25.971,-50.1588 -70.1567,-75.9555 -44.1856,-25.7968 -112.0274,-46.7622 -212.3886,-46.7622 z m 0,24.099 c 97.0075,0 160.4167,20.2276 200.2388,43.4767 39.822,23.2492 56.1516,50.6444 59.0266,61.3737 3.625,13.5291 6.413,41.0404 3.5865,62.9458 -1.4132,10.9527 -4.3122,20.5071 -7.8619,26.1447 -3.209,5.0964 -5.6047,7.0259 -10.0914,7.3505 -0.417,-0.054 -0.837,-0.095 -1.2646,-0.105 v 0 c -0.7806,-0.019 -1.5408,0.039 -2.2765,0.1601 H 965.09126 c -16.29476,-0.2305 -16.29476,24.3292 0,24.0988 H 1230.921 c 6.135,19.5112 13.5854,33.8792 16.9524,42.6876 1.7381,4.5471 1.6928,6.4522 1.8153,6.417 -0.2733,0.056 -0.1846,-0.05 -1.1689,0.3075 -6.857,2.4859 -29.3492,4.4282 -69.3266,4.5845 -39.9774,0.1564 -98.2715,-0.6824 -181.45237,-0.6824 -83.92701,0 -142.5921,0.8678 -182.7106,0.753 -40.11845,-0.115 -62.57644,-2.0377 -69.15408,-4.4228 -0.60473,-0.2193 -0.36909,-0.045 -0.65105,-0.1188 0.13783,-0.1455 0.14664,-1.7896 1.91408,-6.155 3.78247,-9.3417 12.11418,-24.849 18.45226,-46.0859 h 59.11598 c 16.29469,0.2304 16.29469,-24.3294 0,-24.0989 h -69.17757 c -4.40809,0 -6.75002,-1.3661 -10.08667,-6.0545 -3.33672,-4.6884 -6.37921,-12.8282 -8.08791,-22.6822 -3.41729,-19.7079 -1.74386,-45.9418 3.37482,-65.0449 7.78763,-29.0638 60.93592,-104.8506 255.82461,-104.8506 z m -238.13957,325.2956 -96.22611,626.1831 c -0.81959,5.33891 2.0129,10.57104 6.93165,12.80252 l 179.96022,81.68993 c 2.84871,2.13284 6.65208,2.93314 10.162,2.28737 h 281.36381 c 3.5995,0.70803 7.527,-0.10877 10.4287,-2.33925 l 179.8442,-81.63805 c 4.9187,-2.23148 7.7512,-7.46361 6.9315,-12.80252 l -11.3167,-73.64744 -28.6692,-27.88454 14.7778,96.16482 -158.6132,71.99996 -2.4398,-32.25899 128.6702,-58.40839 -17.0935,-111.24704 -186.9547,-181.83988 c -1.2519,0.6722 -2.506,1.3362 -3.7545,2.0305 -3.9618,2.2027 -7.9037,4.5159 -11.8282,6.9502 -3.9244,2.4343 -7.8306,4.9892 -11.7152,7.6707 -3.8847,2.6814 -7.7488,5.4901 -11.5913,8.4345 -3.8425,2.9441 -7.6647,6.023 -11.4627,9.2458 -3.798,3.2228 -7.5718,6.5901 -11.323,10.1071 -3.7511,3.517 -7.4768,7.1852 -11.1787,11.0121 -3.39059,3.5052 -6.85482,6.7972 -10.38794,9.8831 -3.53305,3.0853 -7.13642,5.9632 -10.80215,8.6401 -3.66585,2.6769 -7.39467,5.1528 -11.18333,7.432 -3.78876,2.2792 -7.63912,4.3628 -11.54111,6.2552 -3.90195,1.8927 -7.85586,3.5947 -11.86114,5.1119 -4.00542,1.5168 -8.06182,2.8481 -12.16087,4.0006 -4.09898,1.1525 -8.24159,2.1256 -12.42443,2.9246 -4.18274,0.7985 -8.40447,1.4234 -12.66129,1.8794 -4.25692,0.4563 -8.54875,0.7432 -12.87001,0.8677 -1.29324,0.036 -2.59105,0.055 -3.88939,0.064 l 21.41753,-259.314 -22.38559,-21.7738 -23.0963,279.649 c -3.85583,-0.4746 -7.72683,-1.0566 -11.60858,-1.7573 -4.45548,-0.8043 -8.92422,-1.7558 -13.40501,-2.8476 -4.48077,-1.0917 -8.97152,-2.3247 -13.46774,-3.6933 -4.49629,-1.3684 -9.00038,-2.8719 -13.50228,-4.5059 -4.50192,-1.6343 -9.00446,-3.3986 -13.50228,-5.2873 -4.4978,-1.8888 -8.98856,-3.902 -13.47248,-6.0342 -4.48389,-2.1323 -8.95883,-4.3832 -13.41913,-6.748 -4.4603,-2.3648 -8.90589,-4.8441 -13.33276,-7.4305 -2.62986,-1.5366 -5.23742,-3.1861 -7.85255,-4.7979 l -36.12952,235.11942 128.9996,58.55743 -2.65618,32.16183 -158.7263,-72.05197 92.23003,-600.18611 z m 153.55033,25.1925 c -6.18274,0.2034 -11.20856,5.0538 -11.629,11.2255 l -5.19789,62.9474 22.38562,21.7738 6.83428,-82.741 c 0.70126,-7.2402 -5.12293,-13.4465 -12.39301,-13.2057 z m 186.11364,74.5855 c -7.1257,-0.066 -12.7515,6.0314 -12.1138,13.1288 l 13.9714,184.7221 c -0.2207,0.094 -0.4413,0.1913 -0.6621,0.2854 l 157.7786,153.46107 -28.5719,-185.93797 c -2.5393,0.3777 -5.0853,0.7317 -7.6219,1.1203 -8.457,1.2955 -16.8981,2.662 -25.3132,4.1625 -8.4151,1.5001 -16.8052,3.1335 -25.1595,4.9639 -8.3543,1.8305 -16.6728,3.8565 -24.9477,6.1423 -4.1374,1.1431 -8.2649,2.3518 -12.3789,3.6321 -3.2226,1.0031 -6.4342,2.0642 -9.6411,3.16 l -13.4269,-177.5253 c -0.3863,-6.3132 -5.5881,-11.2548 -11.913,-11.3152 z m 30.1095,571.38334 2.0945,27.70274 H 869.80807 l 2.27816,-27.57697 c 85.16133,0 184.15797,-0.12577 256.10237,-0.12577 z"
             style="color:#000000;font-style:normal;font-variant:normal;font-weight:normal;font-stretch:normal;font-size:medium;line-height:normal;font-family:sans-serif;font-variant-ligatures:normal;font-variant-position:normal;font-variant-caps:normal;font-variant-numeric:normal;font-variant-alternates:normal;font-feature-settings:normal;text-indent:0;text-align:start;text-decoration:none;text-decoration-line:none;text-decoration-style:solid;text-decoration-color:#000000;letter-spacing:normal;word-spacing:normal;text-transform:none;writing-mode:lr-tb;direction:ltr;text-orientation:mixed;dominant-baseline:auto;baseline-shift:baseline;text-anchor:start;white-space:normal;shape-padding:0;clip-rule:nonzero;display:inline;overflow:visible;visibility:visible;opacity:1;isolation:auto;mix-blend-mode:normal;color-interpolation:sRGB;color-interpolation-filters:linearRGB;solid-color:#000000;solid-opacity:1;vector-effect:none;fill:#ffffff;fill-opacity:1;fill-rule:nonzero;stroke:none;stroke-width:21.498;stroke-linecap:round;stroke-linejoin:round;stroke-miterlimit:4;stroke-dasharray:none;stroke-dashoffset:0;stroke-opacity:1;color-rendering:auto;image-rendering:auto;shape-rendering:auto;text-rendering:auto;enable-background:accumulate" />
          <path
             inkscape:export-ydpi="96"
             inkscape:export-xdpi="96"
             sodipodi:nodetypes="cc"
             inkscape:connector-curvature="0"
             id="path1987"
             d="M 466.85258,-1781.7995 1533.1475,-744.68194"
             style="fill:none;stroke:#ffffff;stroke-width:21.498;stroke-linecap:round;stroke-linejoin:round;stroke-miterlimit:4;stroke-dasharray:none;stroke-opacity:1" />
          <path
             inkscape:export-ydpi="96"
             inkscape:export-xdpi="96"
             inkscape:connector-curvature="0"
             d="m 1106.6055,-1710.3455 a 18.61042,3.2365946 0 0 1 -18.6103,3.2366 18.61042,3.2365946 0 0 1 -18.6106,-3.2366 18.61042,3.2365946 0 0 1 18.6106,-3.2366 18.61042,3.2365946 0 0 1 18.6103,3.2366 z m -175.98971,0 a 18.61042,3.2365946 0 0 1 -18.61056,3.2366 18.61042,3.2365946 0 0 1 -18.61055,-3.2366 18.61042,3.2365946 0 0 1 18.61055,-3.2366 18.61042,3.2365946 0 0 1 18.61056,3.2366 z m 88.31261,-25.0837 a 18.61042,3.2365946 0 0 1 -18.6103,3.2367 18.61042,3.2365946 0 0 1 -18.61057,-3.2367 18.61042,3.2365946 0 0 1 18.61057,-3.2366 18.61042,3.2365946 0 0 1 18.6103,3.2366 z"
             style="display:inline;opacity:1;fill:#ffffff;fill-opacity:1;stroke:#ffffff;stroke-width:21.498;stroke-linecap:round;stroke-linejoin:round;stroke-miterlimit:4;stroke-dasharray:none;stroke-dashoffset:0"
             id="ellipse2119-5" />
        </g>
      </g>
      <g
         id="g1556"
         transform="matrix(1.1209824,0,0,1.1209824,-152.79988,-13.766946)"
         style="stroke-width:0.892075">
        <path
           id="path1532"
           style="opacity:1;fill:none;stroke:#000000;stroke-width:7.08086;stroke-linecap:round;stroke-linejoin:round;stroke-miterlimit:4;stroke-dasharray:none;paint-order:fill markers stroke"
           d="m 1156.9024,273.87707 a 58.451027,58.346874 0 0 1 58.3539,58.34678 58.451027,58.346874 0 0 1 -5.583,24.885 l -11.3369,-19.6009 -30.031,51.9223 a 58.451027,58.346874 0 0 1 -11.5,1.1404 58.451027,58.346874 0 0 1 -58.451,-58.3468 58.451027,58.346874 0 0 1 58.451,-58.34678 58.451027,58.346874 0 0 1 0.097,0 z" />
        <path
           id="path1529"
           style="opacity:1;fill:none;stroke:#000000;stroke-width:7.08086;stroke-linecap:round;stroke-linejoin:round;stroke-miterlimit:4;stroke-dasharray:none;paint-order:fill markers stroke"
           inkscape:transform-center-x="-6.8505852e-06"
           inkscape:transform-center-y="-17.20028"
           d="m 1198.3364,337.50795 59.6897,103.2016 h -119.3797 l 11.7699,-20.3494 h 16.1775 c 0.5272,0 0.9517,-0.4238 0.9517,-0.95 v -28.6658 z" />
        <path
           id="rect1540"
           style="opacity:1;fill:none;stroke:#000000;stroke-width:7.08086;stroke-linecap:round;stroke-linejoin:round;stroke-miterlimit:4;stroke-dasharray:none;paint-order:fill markers stroke"
           d="m 1100.321,317.21634 a 58.451027,58.346874 0 0 0 -1.9666,15.00751 58.451027,58.346874 0 0 0 58.451,58.3468 58.451027,58.346874 0 0 0 10.7401,-0.9934 v 29.8329 c 0,0.5262 -0.4245,0.95 -0.9517,0.95 h -101.4245 c -0.5272,0 -0.9517,-0.4238 -0.9517,-0.95 v -101.2438 c 0,-0.5263 0.4245,-0.95001 0.9517,-0.95001 z" />
      </g>
    </g>
  </g>
</svg>
