<?xml version="1.0" encoding="UTF-8" standalone="no"?>
<svg
   xmlns:dc="http://purl.org/dc/elements/1.1/"
   xmlns:cc="http://creativecommons.org/ns#"
   xmlns:rdf="http://www.w3.org/1999/02/22-rdf-syntax-ns#"
   xmlns:svg="http://www.w3.org/2000/svg"
   xmlns="http://www.w3.org/2000/svg"
   xmlns:sodipodi="http://sodipodi.sourceforge.net/DTD/sodipodi-0.dtd"
   xmlns:inkscape="http://www.inkscape.org/namespaces/inkscape"
   width="600"
   height="600"
   viewBox="0 0 158.75 158.75"
   version="1.1"
   id="svg8"
   inkscape:version="1.0.1 (3bc2e813f5, 2020-09-07)"
   sodipodi:docname="Web_Banner.svg"
   inkscape:export-filename="F:\Workspace\saltfreesite\SaltFreeInteractive.github.io\assets\images\banner-background.png"
   inkscape:export-xdpi="96"
   inkscape:export-ydpi="96">
  <defs
     id="defs2">
    <inkscape:path-effect
       bendpath4="M -256.48874,299.42438 V 467.46735"
       bendpath3="M -256.48874,467.46735 H 218.30618"
       bendpath2="M 218.30618,299.42438 V 467.46735"
       bendpath1="M -256.48874,299.42438 H 218.30618"
       xx="true"
       yy="true"
       is_visible="true"
       id="path-effect1026"
       effect="envelope"
       lpeversion="0" />
    <inkscape:path-effect
       bendpath1-nodetypes="cc"
       bendpath4="M -2.6824795,2.3679333 V 123.94973"
       bendpath3="M -2.6824795,123.94973 H 200.36164"
       bendpath2="M 200.36164,2.3679333 V 123.94973"
       bendpath1="M 0,0 H 1"
       xx="true"
       yy="true"
       is_visible="true"
       id="path-effect5038"
       effect="envelope"
       lpeversion="0" />
    <filter
       inkscape:collect="always"
       style="color-interpolation-filters:sRGB"
       id="filter1226"
       x="-0.028770031"
       width="1.0575401"
       y="-0.028770031"
       height="1.0575401">
      <feGaussianBlur
         inkscape:collect="always"
         stdDeviation="25.37357"
         id="feGaussianBlur1228" />
    </filter>
  </defs>
  <sodipodi:namedview
     id="base"
     pagecolor="#ffffff"
     bordercolor="#666666"
     borderopacity="1.0"
     inkscape:pageopacity="0.0"
     inkscape:pageshadow="2"
     inkscape:zoom="3.959798"
     inkscape:cx="125.87092"
     inkscape:cy="232.61365"
     inkscape:document-units="mm"
     inkscape:current-layer="g5827"
     inkscape:document-rotation="0"
     showgrid="false"
     inkscape:pagecheckerboard="true"
     units="px"
     inkscape:window-width="2560"
     inkscape:window-height="1417"
     inkscape:window-x="-8"
     inkscape:window-y="-8"
     inkscape:window-maximized="1"
     inkscape:snap-midpoints="false"
     inkscape:snap-intersection-paths="false"
     inkscape:snap-object-midpoints="false"
     inkscape:object-paths="true"
     inkscape:snap-global="false" />
  <metadata
     id="metadata5">
    <rdf:RDF>
      <cc:Work
         rdf:about="">
        <dc:format>image/svg+xml</dc:format>
        <dc:type
           rdf:resource="http://purl.org/dc/dcmitype/StillImage" />
        <dc:title></dc:title>
      </cc:Work>
    </rdf:RDF>
  </metadata>
  <g
     inkscape:label="Layer 1"
     inkscape:groupmode="layer"
     id="layer1">
    <g
       id="g5827"
       transform="translate(0,-1.3363476)">
      <rect
         style="opacity:1;fill:none;stroke:#000000;stroke-width:1.85208;stroke-linecap:round;stroke-linejoin:round;stroke-miterlimit:4;stroke-dasharray:none;paint-order:fill markers stroke"
         id="rect4546"
         width="60.104824"
         height="60.216846"
         x="19.986301"
         y="24.069206" />
      <path
         style="fill:none;stroke:#000000;stroke-width:0.92604;stroke-linecap:butt;stroke-linejoin:miter;stroke-miterlimit:4;stroke-dasharray:none;stroke-opacity:1"
         d="M 19.986312,31.623488 H 80.091129"
         id="path4548" />
      <path
         style="fill:none;stroke:#000000;stroke-width:0.92604;stroke-linecap:round;stroke-linejoin:round;stroke-miterlimit:4;stroke-dasharray:none;stroke-opacity:1"
         d="m 74.327572,26.505174 3.184833,3.184952"
         id="path5128" />
      <path
         style="fill:none;stroke:#000000;stroke-width:0.92604;stroke-linecap:round;stroke-linejoin:round;stroke-miterlimit:4;stroke-dasharray:none;stroke-opacity:1"
         d="m 77.512405,26.505174 -3.184833,3.184952"
         id="path5130" />
      <rect
         style="opacity:1;fill:none;stroke:#000000;stroke-width:0.92604;stroke-linecap:round;stroke-linejoin:round;stroke-miterlimit:4;stroke-dasharray:none;paint-order:fill markers stroke"
         id="rect5132"
         width="15.599356"
         height="15.599917"
         x="23.994484"
         y="35.358677" />
      <path
         style="fill:none;stroke:#000000;stroke-width:1.85209;stroke-linecap:round;stroke-linejoin:round;stroke-miterlimit:4;stroke-dasharray:none;stroke-opacity:1"
         d="M 43.768324,35.781634 H 76.285292"
         id="path5136" />
      <path
         style="fill:none;stroke:#000000;stroke-width:0.92604;stroke-linecap:round;stroke-linejoin:round;stroke-miterlimit:4;stroke-dasharray:none;stroke-opacity:1"
         d="M 47.118889,39.343794 H 76.120512"
         id="path5140" />
      <path
         style="fill:none;stroke:#000000;stroke-width:0.92604;stroke-linecap:round;stroke-linejoin:round;stroke-miterlimit:4;stroke-dasharray:none;stroke-opacity:1"
         d="m 44.265518,42.483004 h 31.90707"
         id="path5142" />
      <path
         style="fill:none;stroke:#000000;stroke-width:0.92604;stroke-linecap:round;stroke-linejoin:round;stroke-miterlimit:4;stroke-dasharray:none;stroke-opacity:1"
         d="m 44.265518,45.622214 h 31.90707"
         id="path5144" />
      <path
         style="fill:none;stroke:#000000;stroke-width:0.92604;stroke-linecap:round;stroke-linejoin:round;stroke-miterlimit:4;stroke-dasharray:none;stroke-opacity:1"
         d="m 44.265518,48.761422 h 31.90707"
         id="path5146" />
      <rect
         style="opacity:1;fill:none;stroke:#000000;stroke-width:0.92604;stroke-linecap:round;stroke-linejoin:round;stroke-miterlimit:4;stroke-dasharray:none;paint-order:fill markers stroke"
         id="rect5148"
         width="15.599356"
         height="15.599917"
         x="-76.708221"
         y="58.48391"
         transform="scale(-1,1)" />
      <path
         style="fill:none;stroke:#000000;stroke-width:1.85209;stroke-linecap:round;stroke-linejoin:round;stroke-miterlimit:4;stroke-dasharray:none;stroke-opacity:1"
         d="M 56.934397,58.906863 H 24.417429"
         id="path5150" />
      <path
         style="fill:none;stroke:#000000;stroke-width:0.92604;stroke-linecap:round;stroke-linejoin:round;stroke-miterlimit:4;stroke-dasharray:none;stroke-opacity:1"
         d="M 56.437201,62.469023 H 27.435574"
         id="path5152" />
      <path
         style="fill:none;stroke:#000000;stroke-width:0.92604;stroke-linecap:round;stroke-linejoin:round;stroke-miterlimit:4;stroke-dasharray:none;stroke-opacity:1"
         d="M 56.437201,65.608233 H 24.530132"
         id="path5154" />
      <path
         style="fill:none;stroke:#000000;stroke-width:0.92604;stroke-linecap:round;stroke-linejoin:round;stroke-miterlimit:4;stroke-dasharray:none;stroke-opacity:1"
         d="M 56.437201,68.747441 H 24.530132"
         id="path5156" />
      <path
         style="fill:none;stroke:#000000;stroke-width:0.92604;stroke-linecap:round;stroke-linejoin:round;stroke-miterlimit:4;stroke-dasharray:none;stroke-opacity:1"
         d="M 56.437201,71.886651 H 24.530132"
         id="path5158" />
    </g>
    <path
       id="path1356"
       style="color:#000000;font-style:normal;font-variant:normal;font-weight:normal;font-stretch:normal;font-size:medium;line-height:normal;font-family:sans-serif;font-variant-ligatures:normal;font-variant-position:normal;font-variant-caps:normal;font-variant-numeric:normal;font-variant-alternates:normal;font-variant-east-asian:normal;font-feature-settings:normal;font-variation-settings:normal;text-indent:0;text-align:start;text-decoration:none;text-decoration-line:none;text-decoration-style:solid;text-decoration-color:#000000;letter-spacing:normal;word-spacing:normal;text-transform:none;writing-mode:lr-tb;direction:ltr;text-orientation:mixed;dominant-baseline:auto;baseline-shift:baseline;text-anchor:start;white-space:normal;shape-padding:0;shape-margin:0;inline-size:0;clip-rule:nonzero;display:inline;overflow:visible;visibility:visible;isolation:auto;mix-blend-mode:normal;color-interpolation:sRGB;color-interpolation-filters:linearRGB;solid-color:#000000;solid-opacity:1;vector-effect:none;fill:#000000;fill-opacity:1;fill-rule:nonzero;stroke:none;stroke-width:1.5965;stroke-linecap:round;stroke-linejoin:round;stroke-miterlimit:4;stroke-dasharray:none;stroke-dashoffset:0;stroke-opacity:1;paint-order:fill markers stroke;color-rendering:auto;image-rendering:auto;shape-rendering:auto;text-rendering:auto;enable-background:accumulate;stop-color:#000000"
       d="m 18.351811,95.71203 c -1.957359,0.0078 -3.991686,0.630869 -5.697754,1.561286 -1.455845,0.793952 -2.6964908,1.83072 -3.4427467,3.077714 -0.5316438,0.88836 -0.7789925,1.93918 -0.5910729,2.96446 -0.3200124,0.29325 -0.6342946,0.59443 -0.942253,0.90239 a 0.89491487,0.89491487 0 0 0 -0.1422582,0.18491 c -2.9969709,5.1909 -4.697021,14.72424 -4.697021,20.50268 0,2.87524 0.2757972,5.63508 1.143699,7.89754 0.8679058,2.26246 2.4360018,4.07417 4.8307752,4.63701 1.4875756,0.34962 2.8741086,-0.10328 3.9919956,-0.90542 1.117887,-0.80215 2.049036,-1.92909 2.945114,-3.10323 1.780649,-2.33318 3.487427,-4.81054 5.211315,-5.50586 5.320089,-1.41183 12.163225,-1.36929 17.32314,0 1.723862,0.69533 3.430228,3.17269 5.210842,5.50586 0.896073,1.17413 1.827358,2.30108 2.945235,3.10323 1.117874,0.80214 2.504311,1.25503 3.991875,0.90542 2.271247,-0.53379 3.921858,-1.83008 4.817143,-3.90344 0.89529,-2.07336 1.157802,-4.83794 1.157802,-8.63111 0,-4.61543 -1.785932,-15.45992 -4.697367,-20.50268 a 0.89491487,0.89491487 0 0 0 -0.142266,-0.18491 c -0.307562,-0.30756 -0.621712,-0.60889 -0.941778,-0.90275 0.187794,-1.02515 -0.05961,-2.07584 -0.591196,-2.9641 -0.74626,-1.246994 -1.987364,-2.283762 -3.443209,-3.077714 -1.819813,-0.992447 -4.01263,-1.635128 -6.08761,-1.554528 -1.156479,0.04492 -2.27609,0.314841 -3.274154,0.873739 H 22.016279 C 21.01824,96.03366 19.89858,95.763709 18.742134,95.718788 c -0.129692,-0.005 -0.259836,-0.0073 -0.390323,-0.0068 z m 0.03496,1.836723 c 0.824131,-0.0036 1.60292,0.117854 2.274229,0.382281 l -0.720054,1.98551 c -0.489349,-0.319695 -0.955027,-0.612001 -1.364375,-0.848336 a 0.89491487,0.89491487 0 0 0 -0.447413,-0.12024 c -2.836858,0 -5.37107,1.138242 -7.633165,2.812532 0.06653,-0.15908 0.149942,-0.3218 0.250855,-0.49042 0.511506,-0.85472 1.51816,-1.746059 2.76417,-2.425577 1.479635,-0.80693 3.263236,-1.288747 4.875753,-1.29575 z m 22.472813,0 c 1.612516,0.007 3.396113,0.48882 4.875754,1.29575 1.246004,0.679518 2.2522,1.570857 2.763704,2.425577 0.09945,0.16619 0.182217,0.32665 0.24829,0.48354 -2.240976,-1.66197 -4.766006,-2.805652 -7.630134,-2.805652 a 0.89491487,0.89491487 0 0 0 -0.447413,0.12024 c -0.433916,0.250521 -0.896179,0.537354 -1.367173,0.840649 l -0.717143,-1.977823 c 0.671309,-0.264415 1.449998,-0.38586 2.274115,-0.382281 z M 22.40113,98.382176 h 14.444094 l 0.924652,2.550254 c -2.088372,1.44059 -4.009883,2.92549 -4.278964,3.13398 h -7.738963 c -0.26596,-0.20183 -2.259159,-1.71127 -4.281995,-3.1165 z m 15.828629,2.236244 c -0.07231,0.049 -0.144499,0.0981 -0.216603,0.14739 0.07217,-0.0493 0.144271,-0.0984 0.216603,-0.14739 z m 3.120351,0.13597 c 3.306516,0.0884 6.212116,2.0191 8.858073,4.64319 2.458855,4.35975 4.409812,15.43417 4.409812,19.50789 0,3.70329 -0.30289,6.28152 -1.01111,7.92166 -0.708219,1.64014 -1.699899,2.42757 -3.583727,2.87032 -0.950996,0.2235 -1.695814,-0.0118 -2.539182,-0.61694 -0.843373,-0.60518 -1.702839,-1.60467 -2.565518,-2.73505 -1.725354,-2.26076 -3.396059,-5.08253 -6.017235,-6.10439 a 0.89491487,0.89491487 0 0 0 -0.09332,-0.0309 c -5.552268,-1.48773 -12.648119,-1.53302 -18.369441,0 a 0.89491487,0.89491487 0 0 0 -0.09379,0.0309 c -2.621194,1.02186 -4.291392,3.84363 -6.016771,6.10439 -0.86269,1.13038 -1.722605,2.12987 -2.565985,2.73505 -0.843377,0.60516 -1.588177,0.84045 -2.5391793,0.61694 -1.7602636,-0.41372 -2.8340785,-1.61817 -3.569632,-3.53561 -0.7355536,-1.91745 -1.0247402,-4.50078 -1.0247402,-7.25637 0,-5.36858 1.7832733,-14.87629 4.4063158,-19.50474 2.6691147,-2.64697 5.6054657,-4.55665 8.8598217,-4.64587 2.333906,1.39011 7.022512,4.91979 7.022512,4.91979 a 0.89491487,0.89491487 0 0 0 0.540278,0.18141 h 8.331314 a 0.89491487,0.89491487 0 0 0 0.548311,-0.18758 c 0,0 4.279105,-3.29615 7.013196,-4.91409 z m -25.948542,3.18432 c -3.101261,0 -5.6243457,2.52356 -5.6243457,5.62482 0,3.10127 2.5230847,5.62435 5.6243457,5.62435 3.101269,0 5.624821,-2.52308 5.624821,-5.62435 0,-3.10126 -2.523552,-5.62482 -5.624821,-5.62482 z m 28.37902,0 c -0.937796,0 -1.704716,0.76681 -1.704716,1.7046 0,0.93779 0.76692,1.70425 1.704716,1.70425 0.937798,0 1.704127,-0.76645 1.704127,-1.70425 0,-0.93779 -0.766329,-1.7046 -1.704127,-1.7046 z m 0,0.59667 c 0.615394,0 1.107465,0.49253 1.107459,1.10793 6e-6,0.6154 -0.492065,1.10758 -1.107459,1.10758 -0.615398,0 -1.108046,-0.49218 -1.108046,-1.10758 0,-0.6154 0.492648,-1.10793 1.108046,-1.10793 z m -28.37902,0.26856 c 2.633608,0 4.759471,2.12598 4.759471,4.75959 0,2.63361 -2.125863,4.759 -4.759471,4.759 -2.633608,0 -4.759115,-2.12539 -4.759115,-4.759 0,-2.63361 2.125507,-4.75959 4.759115,-4.75959 z m 0,0.83937 c -2.159927,0 -3.920219,1.76029 -3.920219,3.92022 0,2.15994 1.760292,3.92011 3.920219,3.92011 2.159937,0 3.920106,-1.76017 3.920106,-3.92011 0,-2.15993 -1.760169,-3.92022 -3.920106,-3.92022 z m 0,0.86535 c 1.692282,0 3.054763,1.36259 3.054763,3.05487 0,1.69228 -1.362481,3.05476 -3.054763,3.05476 -1.692276,0 -3.054867,-1.36248 -3.054867,-3.05476 0,-1.69227 1.362591,-3.05487 3.054867,-3.05487 z m 24.970062,0.66844 c -0.937794,0 -1.704602,0.76645 -1.704602,1.70424 0,0.9378 0.766808,1.70472 1.704602,1.70472 0.937796,0 1.704242,-0.76692 1.704242,-1.70472 0,-0.93779 -0.766446,-1.70424 -1.704242,-1.70424 z m 6.86009,0 c -0.937796,0 -1.704244,0.76645 -1.704244,1.70424 0,0.9378 0.766448,1.70472 1.704244,1.70472 0.937794,0 1.7046,-0.76692 1.7046,-1.70472 0,-0.93779 -0.766806,-1.70424 -1.7046,-1.70424 z m -17.608483,0.17046 c -1.526131,0 -2.769997,1.24374 -2.769997,2.76987 0,1.52613 1.243866,2.76954 2.769997,2.76954 1.526126,0 2.769414,-1.24341 2.769414,-2.76954 0,-1.52613 -1.243288,-2.76987 -2.769414,-2.76987 z m 10.748393,0.42632 c 0.615394,0 1.107579,0.49207 1.107579,1.10746 0,0.6154 -0.492185,1.10793 -1.107579,1.10793 -0.615402,0 -1.107931,-0.49253 -1.107931,-1.10793 0,-0.61539 0.492529,-1.10746 1.107931,-1.10746 z m 6.86009,0 c 0.6154,0 1.107929,0.49207 1.107929,1.10746 0,0.6154 -0.492529,1.10793 -1.107929,1.10793 -0.615394,0 -1.107579,-0.49253 -1.107579,-1.10793 0,-0.61539 0.492185,-1.10746 1.107579,-1.10746 z m -17.608483,0.17035 c 1.203726,0 2.173215,0.96948 2.173215,2.1732 0,1.20374 -0.969489,2.17275 -2.173215,2.17275 -1.203729,0 -2.173214,-0.96901 -2.173214,-2.17275 0,-1.20372 0.969485,-2.1732 2.173214,-2.1732 z m 14.157351,2.42861 c -0.937796,0 -1.704716,0.76691 -1.704716,1.70471 0,0.9378 0.76692,1.70424 1.704716,1.70424 0.937798,0 1.704127,-0.76644 1.704127,-1.70424 0,-0.9378 -0.766333,-1.70471 -1.704127,-1.70471 z m 0,0.59678 c 0.615394,0 1.107459,0.49253 1.107459,1.10793 6e-6,0.6154 -0.492065,1.10747 -1.107459,1.10746 -0.615398,0 -1.108046,-0.49206 -1.108046,-1.10746 0,-0.6154 0.492648,-1.10793 1.108046,-1.10793 z m -6.624972,2.31524 c -3.101261,0 -5.624235,2.52355 -5.624235,5.62482 0,3.10127 2.522974,5.62435 5.624235,5.62435 3.101267,0 5.624819,-2.52308 5.624819,-5.62435 0,-3.10127 -2.523552,-5.62482 -5.624819,-5.62482 z m 0,0.86523 c 2.633608,0 4.759469,2.12598 4.759469,4.75959 0,2.63361 -2.125861,4.759 -4.759469,4.759 -2.633608,0 -4.759004,-2.12539 -4.759004,-4.759 0,-2.63361 2.125396,-4.75959 4.759004,-4.75959 z m -14.585774,10e-4 c -0.3419,0 -0.628472,0.28645 -0.628472,0.62836 v 2.70474 h -2.705099 c -0.341906,0 -0.628476,0.28646 -0.628476,0.62836 v 1.59333 c 0,0.3419 0.286576,0.62836 0.628476,0.62836 h 2.705099 v 2.70521 c 0,0.3419 0.286572,0.62836 0.628472,0.62836 h 1.593213 c 0.3419,0 0.628472,-0.28646 0.628472,-0.62836 v -2.70521 h 2.704633 c 0.341901,0 0.628479,-0.28646 0.628479,-0.62836 v -1.59333 c 0,-0.3419 -0.286572,-0.62836 -0.628479,-0.62836 h -2.704633 v -2.70474 c 0,-0.34191 -0.286572,-0.62836 -0.628472,-0.62836 z m 0.09251,0.72087 h 1.408187 v 2.97285 a 0.36048808,0.36048808 0 0 0 0.360263,0.36025 h 2.972962 v 1.4083 H 24.4308 a 0.36048808,0.36048808 0 0 0 -0.360263,0.36062 v 2.97296 H 22.66235 v -2.97296 a 0.36048808,0.36048808 0 0 0 -0.360722,-0.36062 h -2.972849 v -1.4083 h 2.972849 a 0.36048808,0.36048808 0 0 0 0.360722,-0.36025 z m 14.493261,0.11733 c -2.159929,0 -3.920104,1.76028 -3.920104,3.92022 0,2.15993 1.760175,3.9201 3.920104,3.9201 2.159935,0 3.920104,-1.76017 3.920104,-3.9201 0,-2.15994 -1.760169,-3.92022 -3.920104,-3.92022 z m 0,0.86534 c 1.69228,0 3.054874,1.36259 3.054874,3.05488 0,1.69228 -1.362594,3.05475 -3.054874,3.05475 -1.692276,0 -3.054755,-1.36248 -3.054755,-3.05475 0,-1.69228 1.362479,-3.05488 3.054755,-3.05488 z" />
    <g
       id="g924"
       inkscape:label="Background"
       style="display:inline;fill:#000000;stroke-width:0.892075;filter:url(#filter1226)"
       transform="matrix(0.03500025,0,0,0.03500025,42.333067,106.01836)">
      <rect
         style="opacity:1;fill:#000000;fill-opacity:1;stroke:none;stroke-width:50.6627;stroke-linecap:round;stroke-linejoin:round;stroke-miterlimit:4;stroke-dasharray:none;stroke-dashoffset:0"
         id="rect922"
         width="2116.6667"
         height="2116.6667"
         x="0"
         y="-1819.5668"
         inkscape:export-xdpi="96"
         inkscape:export-ydpi="96" />
    </g>
    <g
       id="layer3"
       inkscape:label="Background"
       style="display:inline;fill:#000000;stroke-width:0.892075"
       transform="matrix(0.03500025,0,0,0.03500025,42.333067,106.01836)">
      <rect
         style="opacity:1;fill:#000000;fill-opacity:1;stroke:none;stroke-width:50.6627;stroke-linecap:round;stroke-linejoin:round;stroke-miterlimit:4;stroke-dasharray:none;stroke-dashoffset:0"
         id="rect1701"
         width="2116.6667"
         height="2116.6667"
         x="0"
         y="-1819.5668"
         inkscape:export-xdpi="96"
         inkscape:export-ydpi="96" />
    </g>
    <g
       style="display:inline;stroke-width:0.892075"
       inkscape:label="Salt copy"
       id="g1971"
       transform="matrix(0.03500025,0,0,0.03500025,42.333067,106.01836)">
      <flowRoot
         xml:space="preserve"
         id="flowRoot1999"
         style="font-style:normal;font-weight:normal;font-size:192px;line-height:1.25;font-family:sans-serif;letter-spacing:0px;word-spacing:0px;fill:#ffffff;fill-opacity:1;stroke:none;stroke-width:0.892075"
         transform="scale(0.26458333)"><flowRegion
           id="flowRegion2001"
           style="font-size:192px;fill:#ffffff;stroke-width:0.892075"><rect
             id="rect2003"
             width="3406.2344"
             height="751.55347"
             x="-1272.7922"
             y="3474.1548"
             style="font-size:192px;fill:#ffffff;stroke-width:0.892075" /></flowRegion><flowPara
           id="flowPara2005"
           style="stroke-width:0.892075" /></flowRoot>
      <g
         aria-label="SALT FREE"
         transform="matrix(0.26458333,0,0,0.26458333,-15.990663,-40.435373)"
         style="font-style:normal;font-weight:normal;font-size:40px;line-height:1.25;font-family:sans-serif;letter-spacing:0px;word-spacing:0px;fill:#000000;fill-opacity:1;stroke:none;stroke-width:0.892075"
         id="flowRoot2007" />
      <g
         aria-label="INTERACTIVE"
         transform="matrix(0.80329594,0,0,0.80329594,1306.0126,-3161.7238)"
         style="font-style:normal;font-weight:normal;font-size:40px;line-height:1.25;font-family:sans-serif;letter-spacing:0px;word-spacing:0px;fill:#000000;fill-opacity:1;stroke:none;stroke-width:0.892075"
         id="flowRoot2037"
         inkscape:export-xdpi="96"
         inkscape:export-ydpi="96" />
      <g
         id="g4532"
         transform="matrix(1.5973279,0,0,1.5973279,-538.99459,1256.5815)"
         style="stroke-width:0.892075">
        <path
           sodipodi:nodetypes="scccccccccccccccccccsccccccccccccccccscccccccsccscccccccccccccccccccccccscccccccccccccccccccccsccccccccccccccccccccccccccccccccc"
           inkscape:export-ydpi="96"
           inkscape:export-xdpi="96"
           inkscape:connector-curvature="0"
           id="path1969"
           d="m 996.5547,-1799.5468 c -201.13977,0 -267.19831,78.3004 -279.0998,122.7177 -6.13492,22.8957 -8.05618,51.133 -3.8486,75.3983 2.10376,12.1328 5.67234,23.3538 12.20319,32.5304 3.86757,5.4343 9.23599,10.0925 15.54032,13.0002 -5.31378,16.4678 -11.88273,28.8488 -16.3154,39.6642 l 59.08619,57.4686 1.79955,-11.7089 h 428.15835 l 77.6734,505.44883 28.6692,27.88487 -82.4744,-536.7162 c 7.3924,-0.8793 13.5096,-2.163 18.7912,-4.0778 7.5953,-2.7534 14.9469,-9.0848 16.6997,-17.1139 1.7529,-8.0291 -0.583,-14.4008 -3.0546,-20.8669 -3.9904,-10.4389 -10.0566,-22.2181 -15.2548,-37.5933 7.0331,-3.3717 12.8491,-8.8655 16.808,-15.1528 6.5453,-10.395 9.686,-22.8657 11.3685,-35.9052 3.3649,-26.0792 0.5803,-54.4022 -4.2047,-72.2604 -5.5353,-20.6582 -25.971,-50.1588 -70.1567,-75.9555 -44.1856,-25.7968 -112.0274,-46.7622 -212.3886,-46.7622 z m 0,24.099 c 97.0075,0 160.4167,20.2276 200.2388,43.4767 39.822,23.2492 56.1516,50.6444 59.0266,61.3737 3.625,13.5291 6.413,41.0404 3.5865,62.9458 -1.4132,10.9527 -4.3122,20.5071 -7.8619,26.1447 -3.209,5.0964 -5.6047,7.0259 -10.0914,7.3505 -0.417,-0.054 -0.837,-0.095 -1.2646,-0.105 v 0 c -0.7806,-0.019 -1.5408,0.039 -2.2765,0.1601 H 965.09126 c -16.29476,-0.2305 -16.29476,24.3292 0,24.0988 H 1230.921 c 6.135,19.5112 13.5854,33.8792 16.9524,42.6876 1.7381,4.5471 1.6928,6.4522 1.8153,6.417 -0.2733,0.056 -0.1846,-0.05 -1.1689,0.3075 -6.857,2.4859 -29.3492,4.4282 -69.3266,4.5845 -39.9774,0.1564 -98.2715,-0.6824 -181.45237,-0.6824 -83.92701,0 -142.5921,0.8678 -182.7106,0.753 -40.11845,-0.115 -62.57644,-2.0377 -69.15408,-4.4228 -0.60473,-0.2193 -0.36909,-0.045 -0.65105,-0.1188 0.13783,-0.1455 0.14664,-1.7896 1.91408,-6.155 3.78247,-9.3417 12.11418,-24.849 18.45226,-46.0859 h 59.11598 c 16.29469,0.2304 16.29469,-24.3294 0,-24.0989 h -69.17757 c -4.40809,0 -6.75002,-1.3661 -10.08667,-6.0545 -3.33672,-4.6884 -6.37921,-12.8282 -8.08791,-22.6822 -3.41729,-19.7079 -1.74386,-45.9418 3.37482,-65.0449 7.78763,-29.0638 60.93592,-104.8506 255.82461,-104.8506 z m -238.13957,325.2956 -96.22611,626.1831 c -0.81959,5.33891 2.0129,10.57104 6.93165,12.80252 l 179.96022,81.68993 c 2.84871,2.13284 6.65208,2.93314 10.162,2.28737 h 281.36381 c 3.5995,0.70803 7.527,-0.10877 10.4287,-2.33925 l 179.8442,-81.63805 c 4.9187,-2.23148 7.7512,-7.46361 6.9315,-12.80252 l -11.3167,-73.64744 -28.6692,-27.88454 14.7778,96.16482 -158.6132,71.99996 -2.4398,-32.25899 128.6702,-58.40839 -17.0935,-111.24704 -186.9547,-181.83988 c -1.2519,0.6722 -2.506,1.3362 -3.7545,2.0305 -3.9618,2.2027 -7.9037,4.5159 -11.8282,6.9502 -3.9244,2.4343 -7.8306,4.9892 -11.7152,7.6707 -3.8847,2.6814 -7.7488,5.4901 -11.5913,8.4345 -3.8425,2.9441 -7.6647,6.023 -11.4627,9.2458 -3.798,3.2228 -7.5718,6.5901 -11.323,10.1071 -3.7511,3.517 -7.4768,7.1852 -11.1787,11.0121 -3.39059,3.5052 -6.85482,6.7972 -10.38794,9.8831 -3.53305,3.0853 -7.13642,5.9632 -10.80215,8.6401 -3.66585,2.6769 -7.39467,5.1528 -11.18333,7.432 -3.78876,2.2792 -7.63912,4.3628 -11.54111,6.2552 -3.90195,1.8927 -7.85586,3.5947 -11.86114,5.1119 -4.00542,1.5168 -8.06182,2.8481 -12.16087,4.0006 -4.09898,1.1525 -8.24159,2.1256 -12.42443,2.9246 -4.18274,0.7985 -8.40447,1.4234 -12.66129,1.8794 -4.25692,0.4563 -8.54875,0.7432 -12.87001,0.8677 -1.29324,0.036 -2.59105,0.055 -3.88939,0.064 l 21.41753,-259.314 -22.38559,-21.7738 -23.0963,279.649 c -3.85583,-0.4746 -7.72683,-1.0566 -11.60858,-1.7573 -4.45548,-0.8043 -8.92422,-1.7558 -13.40501,-2.8476 -4.48077,-1.0917 -8.97152,-2.3247 -13.46774,-3.6933 -4.49629,-1.3684 -9.00038,-2.8719 -13.50228,-4.5059 -4.50192,-1.6343 -9.00446,-3.3986 -13.50228,-5.2873 -4.4978,-1.8888 -8.98856,-3.902 -13.47248,-6.0342 -4.48389,-2.1323 -8.95883,-4.3832 -13.41913,-6.748 -4.4603,-2.3648 -8.90589,-4.8441 -13.33276,-7.4305 -2.62986,-1.5366 -5.23742,-3.1861 -7.85255,-4.7979 l -36.12952,235.11942 128.9996,58.55743 -2.65618,32.16183 -158.7263,-72.05197 92.23003,-600.18611 z m 153.55033,25.1925 c -6.18274,0.2034 -11.20856,5.0538 -11.629,11.2255 l -5.19789,62.9474 22.38562,21.7738 6.83428,-82.741 c 0.70126,-7.2402 -5.12293,-13.4465 -12.39301,-13.2057 z m 186.11364,74.5855 c -7.1257,-0.066 -12.7515,6.0314 -12.1138,13.1288 l 13.9714,184.7221 c -0.2207,0.094 -0.4413,0.1913 -0.6621,0.2854 l 157.7786,153.46107 -28.5719,-185.93797 c -2.5393,0.3777 -5.0853,0.7317 -7.6219,1.1203 -8.457,1.2955 -16.8981,2.662 -25.3132,4.1625 -8.4151,1.5001 -16.8052,3.1335 -25.1595,4.9639 -8.3543,1.8305 -16.6728,3.8565 -24.9477,6.1423 -4.1374,1.1431 -8.2649,2.3518 -12.3789,3.6321 -3.2226,1.0031 -6.4342,2.0642 -9.6411,3.16 l -13.4269,-177.5253 c -0.3863,-6.3132 -5.5881,-11.2548 -11.913,-11.3152 z m 30.1095,571.38334 2.0945,27.70274 H 869.80807 l 2.27816,-27.57697 c 85.16133,0 184.15797,-0.12577 256.10237,-0.12577 z"
           style="color:#000000;font-style:normal;font-variant:normal;font-weight:normal;font-stretch:normal;font-size:medium;line-height:normal;font-family:sans-serif;font-variant-ligatures:normal;font-variant-position:normal;font-variant-caps:normal;font-variant-numeric:normal;font-variant-alternates:normal;font-feature-settings:normal;text-indent:0;text-align:start;text-decoration:none;text-decoration-line:none;text-decoration-style:solid;text-decoration-color:#000000;letter-spacing:normal;word-spacing:normal;text-transform:none;writing-mode:lr-tb;direction:ltr;text-orientation:mixed;dominant-baseline:auto;baseline-shift:baseline;text-anchor:start;white-space:normal;shape-padding:0;clip-rule:nonzero;display:inline;overflow:visible;visibility:visible;opacity:1;isolation:auto;mix-blend-mode:normal;color-interpolation:sRGB;color-interpolation-filters:linearRGB;solid-color:#000000;solid-opacity:1;vector-effect:none;fill:#ffffff;fill-opacity:1;fill-rule:nonzero;stroke:none;stroke-width:21.498;stroke-linecap:round;stroke-linejoin:round;stroke-miterlimit:4;stroke-dasharray:none;stroke-dashoffset:0;stroke-opacity:1;color-rendering:auto;image-rendering:auto;shape-rendering:auto;text-rendering:auto;enable-background:accumulate" />
        <path
           inkscape:export-ydpi="96"
           inkscape:export-xdpi="96"
           sodipodi:nodetypes="cc"
           inkscape:connector-curvature="0"
           id="path1987"
           d="M 466.85258,-1781.7995 1533.1475,-744.68194"
           style="fill:none;stroke:#ffffff;stroke-width:21.498;stroke-linecap:round;stroke-linejoin:round;stroke-miterlimit:4;stroke-dasharray:none;stroke-opacity:1" />
        <path
           inkscape:export-ydpi="96"
           inkscape:export-xdpi="96"
           inkscape:connector-curvature="0"
           d="m 1106.6055,-1710.3455 a 18.61042,3.2365946 0 0 1 -18.6103,3.2366 18.61042,3.2365946 0 0 1 -18.6106,-3.2366 18.61042,3.2365946 0 0 1 18.6106,-3.2366 18.61042,3.2365946 0 0 1 18.6103,3.2366 z m -175.98971,0 a 18.61042,3.2365946 0 0 1 -18.61056,3.2366 18.61042,3.2365946 0 0 1 -18.61055,-3.2366 18.61042,3.2365946 0 0 1 18.61055,-3.2366 18.61042,3.2365946 0 0 1 18.61056,3.2366 z m 88.31261,-25.0837 a 18.61042,3.2365946 0 0 1 -18.6103,3.2367 18.61042,3.2365946 0 0 1 -18.61057,-3.2367 18.61042,3.2365946 0 0 1 18.61057,-3.2366 18.61042,3.2365946 0 0 1 18.6103,3.2366 z"
           style="display:inline;opacity:1;fill:#ffffff;fill-opacity:1;stroke:#ffffff;stroke-width:21.498;stroke-linecap:round;stroke-linejoin:round;stroke-miterlimit:4;stroke-dasharray:none;stroke-dashoffset:0"
           id="ellipse2119-5" />
      </g>
    </g>
    <g
       id="g1556"
       transform="matrix(0.22546782,0,0,0.22546782,-128.01884,0.97144009)"
       style="stroke-width:0.892075">
      <path
         id="path1532"
         style="opacity:1;fill:none;stroke:#000000;stroke-width:7.08086;stroke-linecap:round;stroke-linejoin:round;stroke-miterlimit:4;stroke-dasharray:none;paint-order:fill markers stroke"
         d="m 1156.9024,273.87707 a 58.451027,58.346874 0 0 1 58.3539,58.34678 58.451027,58.346874 0 0 1 -5.583,24.885 l -11.3369,-19.6009 -30.031,51.9223 a 58.451027,58.346874 0 0 1 -11.5,1.1404 58.451027,58.346874 0 0 1 -58.451,-58.3468 58.451027,58.346874 0 0 1 58.451,-58.34678 58.451027,58.346874 0 0 1 0.097,0 z" />
      <path
         id="path1529"
         style="opacity:1;fill:none;stroke:#000000;stroke-width:7.08086;stroke-linecap:round;stroke-linejoin:round;stroke-miterlimit:4;stroke-dasharray:none;paint-order:fill markers stroke"
         inkscape:transform-center-x="-6.8505852e-06"
         inkscape:transform-center-y="-17.20028"
         d="m 1198.3364,337.50795 59.6897,103.2016 h -119.3797 l 11.7699,-20.3494 h 16.1775 c 0.5272,0 0.9517,-0.4238 0.9517,-0.95 v -28.6658 z" />
      <path
         id="rect1540"
         style="opacity:1;fill:none;stroke:#000000;stroke-width:7.08086;stroke-linecap:round;stroke-linejoin:round;stroke-miterlimit:4;stroke-dasharray:none;paint-order:fill markers stroke"
         d="m 1100.321,317.21634 a 58.451027,58.346874 0 0 0 -1.9666,15.00751 58.451027,58.346874 0 0 0 58.451,58.3468 58.451027,58.346874 0 0 0 10.7401,-0.9934 v 29.8329 c 0,0.5262 -0.4245,0.95 -0.9517,0.95 h -101.4245 c -0.5272,0 -0.9517,-0.4238 -0.9517,-0.95 v -101.2438 c 0,-0.5263 0.4245,-0.95001 0.9517,-0.95001 z" />
    </g>
  </g>
</svg>
