<?xml version="1.0" encoding="UTF-8" standalone="no"?>
<svg
   xmlns:dc="http://purl.org/dc/elements/1.1/"
   xmlns:cc="http://creativecommons.org/ns#"
   xmlns:rdf="http://www.w3.org/1999/02/22-rdf-syntax-ns#"
   xmlns:svg="http://www.w3.org/2000/svg"
   xmlns="http://www.w3.org/2000/svg"
   xmlns:sodipodi="http://sodipodi.sourceforge.net/DTD/sodipodi-0.dtd"
   xmlns:inkscape="http://www.inkscape.org/namespaces/inkscape"
   width="600"
   height="600"
   viewBox="0 0 158.75 158.75"
   version="1.1"
   id="svg8"
   inkscape:version="1.0.1 (3bc2e813f5, 2020-09-07)"
   sodipodi:docname="games_dark.svg"
   inkscape:export-filename="F:\Workspace\saltfreesite\SaltFreeInteractive.github.io\assets\images\banner-background.png"
   inkscape:export-xdpi="96"
   inkscape:export-ydpi="96">
  <defs
     id="defs2">
    <inkscape:path-effect
       bendpath4="M -256.48874,299.42438 V 467.46735"
       bendpath3="M -256.48874,467.46735 H 218.30618"
       bendpath2="M 218.30618,299.42438 V 467.46735"
       bendpath1="M -256.48874,299.42438 H 218.30618"
       xx="true"
       yy="true"
       is_visible="true"
       id="path-effect1026"
       effect="envelope"
       lpeversion="0" />
    <inkscape:path-effect
       bendpath1-nodetypes="cc"
       bendpath4="M -2.6824795,2.3679333 V 123.94973"
       bendpath3="M -2.6824795,123.94973 H 200.36164"
       bendpath2="M 200.36164,2.3679333 V 123.94973"
       bendpath1="M 0,0 H 1"
       xx="true"
       yy="true"
       is_visible="true"
       id="path-effect5038"
       effect="envelope"
       lpeversion="0" />
  </defs>
  <sodipodi:namedview
     id="base"
     pagecolor="#ffffff"
     bordercolor="#666666"
     borderopacity="1.0"
     inkscape:pageopacity="0.0"
     inkscape:pageshadow="2"
     inkscape:zoom="1.4"
     inkscape:cx="302.54238"
     inkscape:cy="282.61987"
     inkscape:document-units="mm"
     inkscape:current-layer="layer1"
     inkscape:document-rotation="0"
     showgrid="false"
     inkscape:pagecheckerboard="true"
     units="px"
     inkscape:window-width="1278"
     inkscape:window-height="1408"
     inkscape:window-x="-7"
     inkscape:window-y="0"
     inkscape:window-maximized="0"
     inkscape:snap-midpoints="false"
     inkscape:snap-intersection-paths="false"
     inkscape:snap-object-midpoints="false"
     inkscape:object-paths="true" />
  <metadata
     id="metadata5">
    <rdf:RDF>
      <cc:Work
         rdf:about="">
        <dc:format>image/svg+xml</dc:format>
        <dc:type
           rdf:resource="http://purl.org/dc/dcmitype/StillImage" />
        <dc:title></dc:title>
      </cc:Work>
    </rdf:RDF>
  </metadata>
  <g
     inkscape:label="Layer 1"
     inkscape:groupmode="layer"
     id="layer1">
    <path
       style="fill:#000000;stroke:none;stroke-width:0.264583px;stroke-linecap:butt;stroke-linejoin:miter;stroke-opacity:1"
       d="m 32.449566,118.56234 -6.781361,-19.144823 4.559573,-32.954322 6.976872,-13.832882 4.355205,-9.595689 15.184152,-5.670775 7.357631,1.767888 h 30.546706 l 12.587976,-1.076616 11.61298,6.587739 2.6963,7.98673 6.19199,11.821181 4.88548,41.818349 -7.82464,13.56066 -13.73872,-2.26104 -9.73697,-17.00241 -20.997635,-4.236146 -17.882299,1.886291 -7.827002,10.804215 -11.10248,11.516 z"
       id="path1582" />
    <path
       id="path1356"
       style="color:#000000;font-style:normal;font-variant:normal;font-weight:normal;font-stretch:normal;font-size:medium;line-height:normal;font-family:sans-serif;font-variant-ligatures:normal;font-variant-position:normal;font-variant-caps:normal;font-variant-numeric:normal;font-variant-alternates:normal;font-variant-east-asian:normal;font-feature-settings:normal;font-variation-settings:normal;text-indent:0;text-align:start;text-decoration:none;text-decoration-line:none;text-decoration-style:solid;text-decoration-color:#000000;letter-spacing:normal;word-spacing:normal;text-transform:none;writing-mode:lr-tb;direction:ltr;text-orientation:mixed;dominant-baseline:auto;baseline-shift:baseline;text-anchor:start;white-space:normal;shape-padding:0;shape-margin:0;inline-size:0;clip-rule:nonzero;display:inline;overflow:visible;visibility:visible;isolation:auto;mix-blend-mode:normal;color-interpolation:sRGB;color-interpolation-filters:linearRGB;solid-color:#000000;solid-opacity:1;vector-effect:none;fill:#666666;fill-opacity:1;fill-rule:nonzero;stroke:none;stroke-width:3.2055;stroke-linecap:round;stroke-linejoin:round;stroke-miterlimit:4;stroke-dasharray:none;stroke-dashoffset:0;stroke-opacity:1;paint-order:fill markers stroke;color-rendering:auto;image-rendering:auto;shape-rendering:auto;text-rendering:auto;enable-background:accumulate;stop-color:#000000"
       d="m 56.744007,37.363849 c -3.930046,0.01566 -8.014631,1.266679 -11.440128,3.134799 -2.923091,1.594121 -5.414098,3.675776 -6.912455,6.17953 -1.067451,1.783677 -1.564084,3.893546 -1.186774,5.952135 -0.64253,0.588796 -1.273556,1.193515 -1.891885,1.811847 a 1.796838,1.796838 0 0 0 -0.28563,0.371268 c -6.017412,10.422451 -9.430825,29.563788 -9.430825,41.165919 0,5.772993 0.553753,11.314293 2.296354,15.856923 1.742609,4.54264 4.891081,8.18025 9.699381,9.31033 2.986801,0.70198 5.770725,-0.20737 8.015254,-1.81792 2.244528,-1.61058 4.114118,-3.87329 5.913291,-6.23076 3.575243,-4.68464 7.002165,-9.65876 10.463441,-11.05484 10.68184,-2.834718 24.421702,-2.749305 34.78194,0 3.461219,1.3961 6.887319,6.37022 10.462489,11.05484 1.79917,2.35745 3.66903,4.62018 5.91354,6.23076 2.2445,1.61055 5.02823,2.51988 8.015,1.81792 4.56029,-1.07175 7.87443,-3.67448 9.67203,-7.83744 1.79759,-4.16296 2.32466,-9.71377 2.32466,-17.329813 0,-9.267004 -3.58584,-31.040909 -9.43152,-41.165919 a 1.796838,1.796838 0 0 0 -0.28566,-0.371268 c -0.61753,-0.617529 -1.24829,-1.222549 -1.89091,-1.81257 0.37705,-2.058328 -0.11967,-4.167936 -1.18703,-5.951412 -1.49836,-2.503754 -3.99029,-4.585409 -6.91338,-6.17953 -3.65388,-1.992666 -8.05669,-3.283061 -12.2229,-3.12123 -2.32201,0.09019 -4.57,0.632148 -6.573944,1.75432 H 64.10164 c -2.003894,-1.12211 -4.251982,-1.664126 -6.57393,-1.75432 -0.2604,-0.01004 -0.521707,-0.01466 -0.783703,-0.01365 z m 0.07019,3.68783 c 1.654716,-0.0072 3.218393,0.236631 4.566268,0.767555 l -1.445747,3.986569 c -0.98253,-0.641893 -1.917533,-1.228794 -2.739435,-1.703315 a 1.796838,1.796838 0 0 0 -0.898329,-0.241422 c -5.695932,0 -10.784202,2.285398 -15.326107,5.64709 0.133581,-0.319406 0.301058,-0.64612 0.503675,-0.984681 1.027017,-1.716133 3.048208,-3.505792 5.549986,-4.870149 2.970857,-1.620179 6.552027,-2.587586 9.789689,-2.601647 z m 45.121623,0 c 3.23765,0.01405 6.81882,0.981468 9.78969,2.601647 2.50176,1.364357 4.52203,3.154016 5.54905,4.870149 0.19968,0.333682 0.36586,0.655858 0.49852,0.970867 -4.4995,-3.336955 -9.56933,-5.633276 -15.32002,-5.633276 a 1.796838,1.796838 0 0 0 -0.89833,0.241422 c -0.87123,0.503004 -1.799379,1.078916 -2.745056,1.687881 l -1.439902,-3.971135 c 1.347875,-0.5309 2.911358,-0.774741 4.566048,-0.767555 z m -37.061468,1.673372 h 29.001302 l 1.856545,5.12048 c -4.193098,2.892461 -8.051168,5.87389 -8.591437,6.292503 H 71.602235 c -0.534003,-0.405241 -4.53601,-3.435942 -8.597523,-6.257406 z m 31.781215,4.490001 c -0.145187,0.09838 -0.29013,0.196968 -0.434903,0.295934 0.144905,-0.09899 0.289672,-0.197571 0.434903,-0.295934 z m 6.265143,0.273005 c 6.63892,0.177492 12.47288,4.054011 17.78551,9.322741 4.93696,8.753642 8.85416,30.989208 8.85416,39.168549 0,7.435583 -0.60815,12.612233 -2.03014,15.905353 -1.42199,3.29313 -3.41311,4.87415 -7.19552,5.76312 -1.90943,0.44875 -3.4049,-0.0237 -5.09824,-1.23871 -1.69335,-1.2151 -3.41902,-3.22191 -5.15113,-5.49152 -3.46422,-4.53922 -6.81871,-10.20486 -12.081597,-12.256583 a 1.796838,1.796838 0 0 0 -0.187371,-0.06204 c -11.148017,-2.987111 -25.395287,-3.078046 -36.882736,0 a 1.796838,1.796838 0 0 0 -0.188314,0.06204 c -5.262915,2.051723 -8.616391,7.717363 -12.080661,12.256583 -1.732136,2.26961 -3.4587,4.27642 -5.152064,5.49152 -1.693359,1.21506 -3.188792,1.68748 -5.098243,1.23871 -3.534313,-0.83068 -5.690352,-3.24901 -7.167218,-7.09891 -1.476869,-3.84991 -2.057507,-9.0368 -2.057507,-14.569563 0,-10.779202 3.580513,-29.869078 8.847138,-39.162224 5.359133,-5.314669 11.25483,-9.148984 17.789027,-9.328123 4.686089,2.791106 14.100018,9.878108 14.100018,9.878108 a 1.796838,1.796838 0 0 0 1.084787,0.364241 h 16.727872 a 1.796838,1.796838 0 0 0 1.100916,-0.376629 c 0,0 8.59172,-6.618113 14.081313,-9.866663 z m -52.100297,6.393577 c -6.226808,0 -11.292737,5.066882 -11.292737,11.293688 0,6.226827 5.065929,11.292746 11.292737,11.292746 6.226825,0 11.293691,-5.065919 11.293691,-11.292746 0,-6.226806 -5.066866,-11.293688 -11.293691,-11.293688 z m 56.980287,0 c -1.88294,0 -3.42278,1.539625 -3.42278,3.422549 0,1.882923 1.53984,3.421846 3.42278,3.421846 1.88294,0 3.4216,-1.538902 3.4216,-3.421846 0,-1.882924 -1.53866,-3.422549 -3.4216,-3.422549 z m 0,1.198012 c 1.23561,0 2.2236,0.988917 2.22359,2.224537 1e-5,1.235619 -0.98798,2.223833 -2.22359,2.223833 -1.23562,0 -2.22477,-0.988214 -2.22477,-2.223833 0,-1.23562 0.98915,-2.224537 2.22477,-2.224537 z m -56.980287,0.539223 c 5.287841,0 9.556215,4.268609 9.556215,9.556453 0,5.287845 -4.268374,9.555269 -9.556215,9.555269 -5.28784,0 -9.555499,-4.267424 -9.555499,-9.555269 0,-5.287844 4.267659,-9.556453 9.555499,-9.556453 z m 0,1.685314 c -4.336768,0 -7.871137,3.534365 -7.871137,7.871139 0,4.336795 3.534369,7.870919 7.871137,7.870919 4.336789,0 7.870911,-3.534124 7.870911,-7.870919 0,-4.336774 -3.534122,-7.871139 -7.870911,-7.871139 z m 0,1.737476 c 3.397817,0 6.133449,2.735851 6.133449,6.133663 0,3.397813 -2.735632,6.133443 -6.133449,6.133443 -3.397804,0 -6.133657,-2.73563 -6.133657,-6.133443 0,-3.397792 2.735853,-6.133663 6.133657,-6.133663 z m 50.135677,1.342115 c -1.88294,0 -3.422561,1.538902 -3.422561,3.421826 0,1.882944 1.539621,3.42279 3.422561,3.42279 1.88293,0 3.42183,-1.539846 3.42183,-3.42279 0,-1.882924 -1.5389,-3.421826 -3.42183,-3.421826 z m 13.7739,0 c -1.88294,0 -3.42184,1.538902 -3.42184,3.421826 0,1.882944 1.5389,3.42279 3.42184,3.42279 1.88293,0 3.42255,-1.539846 3.42255,-3.42279 0,-1.882924 -1.53962,-3.421826 -3.42255,-3.421826 z m -35.354867,0.342255 c -3.064213,0 -5.561686,2.49722 -5.561686,5.561431 0,3.064211 2.497473,5.560769 5.561686,5.560769 3.064204,0 5.560516,-2.496558 5.560516,-5.560769 0,-3.064211 -2.496312,-5.561431 -5.560516,-5.561431 z m 21.580967,0.855978 c 1.2356,0 2.22383,0.987994 2.22383,2.223593 0,1.235619 -0.98823,2.224536 -2.22383,2.224536 -1.235631,0 -2.224547,-0.988917 -2.224547,-2.224536 0,-1.235599 0.988916,-2.223593 2.224547,-2.223593 z m 13.7739,0 c 1.23562,0 2.22453,0.987994 2.22453,2.223593 0,1.235619 -0.98891,2.224536 -2.22453,2.224536 -1.23561,0 -2.22383,-0.988917 -2.22383,-2.224536 0,-1.235599 0.98822,-2.223593 2.22383,-2.223593 z m -35.354867,0.342034 c 2.416879,0 4.363449,1.946553 4.363449,4.363419 0,2.416907 -1.94657,4.362515 -4.363449,4.362515 -2.416884,0 -4.363446,-1.945608 -4.363446,-4.362515 0,-2.416866 1.946562,-4.363419 4.363446,-4.363419 z M 107.8007,66.80028 c -1.88294,0 -3.42278,1.539826 -3.42278,3.42277 0,1.882944 1.53984,3.421826 3.42278,3.421826 1.88294,0 3.4216,-1.538882 3.4216,-3.421826 0,-1.882944 -1.53867,-3.42277 -3.4216,-3.42277 z m 0,1.198234 c 1.23561,0 2.22359,0.988917 2.22359,2.224536 1e-5,1.235619 -0.98798,2.223613 -2.22359,2.223593 -1.23562,0 -2.22477,-0.987974 -2.22477,-2.223593 0,-1.235619 0.98915,-2.224536 2.22477,-2.224536 z m -13.301827,4.648611 c -6.226809,0 -11.292515,5.066862 -11.292515,11.293689 0,6.226826 5.065706,11.292745 11.292515,11.292745 6.226817,0 11.293687,-5.065919 11.293687,-11.292745 0,-6.226827 -5.06687,-11.293689 -11.293687,-11.293689 z m 0,1.737235 c 5.28784,0 9.556207,4.268609 9.556207,9.556454 0,5.287844 -4.268367,9.555268 -9.556207,9.555268 -5.28784,0 -9.555277,-4.267424 -9.555277,-9.555268 0,-5.287845 4.267437,-9.556454 9.555277,-9.556454 z m -29.285772,0.002 c -0.686477,0 -1.261865,0.575143 -1.261865,1.261641 v 5.430661 h -5.431382 c -0.68649,0 -1.261874,0.575164 -1.261874,1.261641 v 3.199138 c 0,0.686477 0.575396,1.26164 1.261874,1.26164 h 5.431382 v 5.431605 c 0,0.686478 0.575388,1.261641 1.261865,1.261641 h 3.198903 c 0.686477,0 1.261866,-0.575163 1.261866,-1.261641 v -5.431605 h 5.430446 c 0.68648,0 1.26188,-0.575163 1.26188,-1.26164 v -3.199138 c 0,-0.686477 -0.575388,-1.261641 -1.26188,-1.261641 H 69.67387 v -5.430661 c 0,-0.686498 -0.575389,-1.261641 -1.261866,-1.261641 z m 0.185745,1.447386 h 2.827401 v 5.96898 a 0.7237992,0.7237992 0 0 0 0.723348,0.723322 H 74.9188 v 2.827628 h -5.969209 a 0.7237992,0.7237992 0 0 0 -0.723348,0.724064 v 5.969202 H 65.398842 V 86.07774 a 0.7237992,0.7237992 0 0 0 -0.724269,-0.724064 h -5.968979 v -2.827628 h 5.968979 a 0.7237992,0.7237992 0 0 0 0.724269,-0.723322 z m 29.100021,0.235578 c -4.336773,0 -7.870907,3.534345 -7.870907,7.87114 0,4.336775 3.534134,7.870899 7.870907,7.870899 4.336784,0 7.870903,-3.534124 7.870903,-7.870899 0,-4.336795 -3.534119,-7.87114 -7.870903,-7.87114 z m 0,1.737457 c 3.397812,0 6.133673,2.735851 6.133673,6.133683 0,3.397813 -2.735861,6.133422 -6.133673,6.133422 -3.397805,0 -6.133433,-2.735629 -6.133433,-6.133422 0,-3.397812 2.735628,-6.133683 6.133433,-6.133683 z" />
  </g>
</svg>
