<?xml version="1.0" encoding="UTF-8" standalone="no"?>
<svg
   xmlns:dc="http://purl.org/dc/elements/1.1/"
   xmlns:cc="http://creativecommons.org/ns#"
   xmlns:rdf="http://www.w3.org/1999/02/22-rdf-syntax-ns#"
   xmlns:svg="http://www.w3.org/2000/svg"
   xmlns="http://www.w3.org/2000/svg"
   xmlns:sodipodi="http://sodipodi.sourceforge.net/DTD/sodipodi-0.dtd"
   xmlns:inkscape="http://www.inkscape.org/namespaces/inkscape"
   width="600"
   height="600"
   viewBox="0 0 158.75 158.75"
   version="1.1"
   id="svg8"
   inkscape:version="1.0.1 (3bc2e813f5, 2020-09-07)"
   sodipodi:docname="media.svg"
   inkscape:export-filename="F:\Workspace\saltfreesite\SaltFreeInteractive.github.io\assets\images\banner-background.png"
   inkscape:export-xdpi="96"
   inkscape:export-ydpi="96">
  <defs
     id="defs2">
    <inkscape:path-effect
       bendpath4="M -256.48874,299.42438 V 467.46735"
       bendpath3="M -256.48874,467.46735 H 218.30618"
       bendpath2="M 218.30618,299.42438 V 467.46735"
       bendpath1="M -256.48874,299.42438 H 218.30618"
       xx="true"
       yy="true"
       is_visible="true"
       id="path-effect1026"
       effect="envelope"
       lpeversion="0" />
    <inkscape:path-effect
       bendpath1-nodetypes="cc"
       bendpath4="M -2.6824795,2.3679333 V 123.94973"
       bendpath3="M -2.6824795,123.94973 H 200.36164"
       bendpath2="M 200.36164,2.3679333 V 123.94973"
       bendpath1="M 0,0 H 1"
       xx="true"
       yy="true"
       is_visible="true"
       id="path-effect5038"
       effect="envelope"
       lpeversion="0" />
  </defs>
  <sodipodi:namedview
     id="base"
     pagecolor="#ffffff"
     bordercolor="#666666"
     borderopacity="1.0"
     inkscape:pageopacity="0.0"
     inkscape:pageshadow="2"
     inkscape:zoom="0.92543532"
     inkscape:cx="215.11438"
     inkscape:cy="355.82696"
     inkscape:document-units="mm"
     inkscape:current-layer="layer1"
     inkscape:document-rotation="0"
     showgrid="false"
     inkscape:pagecheckerboard="true"
     units="px"
     inkscape:window-width="1500"
     inkscape:window-height="938"
     inkscape:window-x="-6"
     inkscape:window-y="-6"
     inkscape:window-maximized="1"
     inkscape:snap-midpoints="false"
     inkscape:snap-intersection-paths="false"
     inkscape:snap-object-midpoints="false"
     inkscape:object-paths="true" />
  <metadata
     id="metadata5">
    <rdf:RDF>
      <cc:Work
         rdf:about="">
        <dc:format>image/svg+xml</dc:format>
        <dc:type
           rdf:resource="http://purl.org/dc/dcmitype/StillImage" />
        <dc:title />
      </cc:Work>
    </rdf:RDF>
  </metadata>
  <g
     inkscape:label="Layer 1"
     inkscape:groupmode="layer"
     id="layer1">
    <g
       id="g1556"
       transform="matrix(0.51131209,0,0,0.51131209,-514.32057,-103.31339)"
       style="stroke-width:0.892075;stroke:#000000;stroke-opacity:1">
      <path
         id="path1532"
         style="opacity:1;fill:none;stroke:#000000;stroke-width:7.08086;stroke-linecap:round;stroke-linejoin:round;stroke-miterlimit:4;stroke-dasharray:none;paint-order:fill markers stroke;stroke-opacity:1"
         d="m 1156.9024,273.87707 a 58.451027,58.346874 0 0 1 58.3539,58.34678 58.451027,58.346874 0 0 1 -5.583,24.885 l -11.3369,-19.6009 -30.031,51.9223 a 58.451027,58.346874 0 0 1 -11.5,1.1404 58.451027,58.346874 0 0 1 -58.451,-58.3468 58.451027,58.346874 0 0 1 58.451,-58.34678 58.451027,58.346874 0 0 1 0.097,0 z" />
      <path
         id="path1529"
         style="opacity:1;fill:none;stroke:#000000;stroke-width:7.08086;stroke-linecap:round;stroke-linejoin:round;stroke-miterlimit:4;stroke-dasharray:none;paint-order:fill markers stroke;stroke-opacity:1"
         inkscape:transform-center-x="-6.8505852e-06"
         inkscape:transform-center-y="-17.20028"
         d="m 1198.3364,337.50795 59.6897,103.2016 h -119.3797 l 11.7699,-20.3494 h 16.1775 c 0.5272,0 0.9517,-0.4238 0.9517,-0.95 v -28.6658 z" />
      <path
         id="rect1540"
         style="opacity:1;fill:none;stroke:#000000;stroke-width:7.08086;stroke-linecap:round;stroke-linejoin:round;stroke-miterlimit:4;stroke-dasharray:none;paint-order:fill markers stroke;stroke-opacity:1"
         d="m 1100.321,317.21634 a 58.451027,58.346874 0 0 0 -1.9666,15.00751 58.451027,58.346874 0 0 0 58.451,58.3468 58.451027,58.346874 0 0 0 10.7401,-0.9934 v 29.8329 c 0,0.5262 -0.4245,0.95 -0.9517,0.95 h -101.4245 c -0.5272,0 -0.9517,-0.4238 -0.9517,-0.95 v -101.2438 c 0,-0.5263 0.4245,-0.95001 0.9517,-0.95001 z" />
    </g>
  </g>
</svg>
