<?xml version="1.0" encoding="UTF-8" standalone="no"?>
<svg
   xmlns:dc="http://purl.org/dc/elements/1.1/"
   xmlns:cc="http://creativecommons.org/ns#"
   xmlns:rdf="http://www.w3.org/1999/02/22-rdf-syntax-ns#"
   xmlns:svg="http://www.w3.org/2000/svg"
   xmlns="http://www.w3.org/2000/svg"
   xmlns:sodipodi="http://sodipodi.sourceforge.net/DTD/sodipodi-0.dtd"
   xmlns:inkscape="http://www.inkscape.org/namespaces/inkscape"
   width="600"
   height="600"
   viewBox="0 0 158.75 158.75"
   version="1.1"
   id="svg8"
   inkscape:version="1.0.1 (3bc2e813f5, 2020-09-07)"
   sodipodi:docname="websites_dark.svg"
   inkscape:export-filename="F:\Workspace\saltfreesite\SaltFreeInteractive.github.io\assets\images\banner-background.png"
   inkscape:export-xdpi="96"
   inkscape:export-ydpi="96">
  <defs
     id="defs2">
    <inkscape:path-effect
       bendpath4="M -256.48874,299.42438 V 467.46735"
       bendpath3="M -256.48874,467.46735 H 218.30618"
       bendpath2="M 218.30618,299.42438 V 467.46735"
       bendpath1="M -256.48874,299.42438 H 218.30618"
       xx="true"
       yy="true"
       is_visible="true"
       id="path-effect1026"
       effect="envelope"
       lpeversion="0" />
    <inkscape:path-effect
       bendpath1-nodetypes="cc"
       bendpath4="M -2.6824795,2.3679333 V 123.94973"
       bendpath3="M -2.6824795,123.94973 H 200.36164"
       bendpath2="M 200.36164,2.3679333 V 123.94973"
       bendpath1="M 0,0 H 1"
       xx="true"
       yy="true"
       is_visible="true"
       id="path-effect5038"
       effect="envelope"
       lpeversion="0" />
  </defs>
  <sodipodi:namedview
     id="base"
     pagecolor="#ffffff"
     bordercolor="#666666"
     borderopacity="1.0"
     inkscape:pageopacity="0.0"
     inkscape:pageshadow="2"
     inkscape:zoom="1.188789"
     inkscape:cx="415.77248"
     inkscape:cy="314.40893"
     inkscape:document-units="mm"
     inkscape:current-layer="layer1"
     inkscape:document-rotation="0"
     showgrid="false"
     inkscape:pagecheckerboard="true"
     units="px"
     inkscape:window-width="1500"
     inkscape:window-height="938"
     inkscape:window-x="-6"
     inkscape:window-y="-6"
     inkscape:window-maximized="1"
     inkscape:snap-midpoints="false"
     inkscape:snap-intersection-paths="false"
     inkscape:snap-object-midpoints="false"
     inkscape:object-paths="true"
     inkscape:snap-nodes="true"
     inkscape:snap-global="false"
     inkscape:snap-bbox="false" />
  <metadata
     id="metadata5">
    <rdf:RDF>
      <cc:Work
         rdf:about="">
        <dc:format>image/svg+xml</dc:format>
        <dc:type
           rdf:resource="http://purl.org/dc/dcmitype/StillImage" />
        <dc:title />
      </cc:Work>
    </rdf:RDF>
  </metadata>
  <g
     inkscape:label="Layer 1"
     inkscape:groupmode="layer"
     id="layer1">
    <path
       style="color:#000000;font-style:normal;font-variant:normal;font-weight:normal;font-stretch:normal;font-size:medium;line-height:normal;font-family:sans-serif;font-variant-ligatures:normal;font-variant-position:normal;font-variant-caps:normal;font-variant-numeric:normal;font-variant-alternates:normal;font-variant-east-asian:normal;font-feature-settings:normal;font-variation-settings:normal;text-indent:0;text-align:start;text-decoration:none;text-decoration-line:none;text-decoration-style:solid;text-decoration-color:#000000;letter-spacing:normal;word-spacing:normal;text-transform:none;writing-mode:lr-tb;direction:ltr;text-orientation:mixed;dominant-baseline:auto;baseline-shift:baseline;text-anchor:start;white-space:normal;shape-padding:0;shape-margin:0;inline-size:0;clip-rule:nonzero;display:inline;overflow:visible;visibility:visible;isolation:auto;mix-blend-mode:normal;color-interpolation:sRGB;color-interpolation-filters:linearRGB;solid-color:#000000;solid-opacity:1;vector-effect:none;fill:#000000;fill-opacity:1;fill-rule:nonzero;stroke:none;stroke-width:3.43958;stroke-linecap:round;stroke-linejoin:round;stroke-miterlimit:4;stroke-dasharray:none;stroke-dashoffset:0;stroke-opacity:1;paint-order:fill markers stroke;color-rendering:auto;image-rendering:auto;shape-rendering:auto;text-rendering:auto;enable-background:accumulate;stop-color:#000000"
       d="M 27.783848,27.542429 H 131.18502 V 131.13259 H 27.783848 Z"
       id="path928" />
    <path
       id="path886"
       style="color:#000000;font-style:normal;font-variant:normal;font-weight:normal;font-stretch:normal;font-size:medium;line-height:normal;font-family:sans-serif;font-variant-ligatures:normal;font-variant-position:normal;font-variant-caps:normal;font-variant-numeric:normal;font-variant-alternates:normal;font-variant-east-asian:normal;font-feature-settings:normal;font-variation-settings:normal;text-indent:0;text-align:start;text-decoration:none;text-decoration-line:none;text-decoration-style:solid;text-decoration-color:#000000;letter-spacing:normal;word-spacing:normal;text-transform:none;writing-mode:lr-tb;direction:ltr;text-orientation:mixed;dominant-baseline:auto;baseline-shift:baseline;text-anchor:start;white-space:normal;shape-padding:0;shape-margin:0;inline-size:0;clip-rule:nonzero;display:inline;overflow:visible;visibility:visible;isolation:auto;mix-blend-mode:normal;color-interpolation:sRGB;color-interpolation-filters:linearRGB;solid-color:#000000;solid-opacity:1;vector-effect:none;fill:#666666;fill-opacity:1;fill-rule:nonzero;stroke:none;stroke-width:13;stroke-linecap:round;stroke-linejoin:round;stroke-miterlimit:4;stroke-dasharray:none;stroke-dashoffset:0;stroke-opacity:1;paint-order:fill markers stroke;color-rendering:auto;image-rendering:auto;shape-rendering:auto;text-rendering:auto;enable-background:accumulate;stop-color:#000000"
       d="m 105.00781,97.595703 a 6.5006438,6.5006438 0 0 0 -6.496091,6.503907 v 391.51953 a 6.5006438,6.5006438 0 0 0 6.496091,6.49609 h 390.8125 a 6.5006438,6.5006438 0 0 0 6.4961,-6.49609 V 104.09961 a 6.5006438,6.5006438 0 0 0 -6.4961,-6.503907 z m 6.50391,12.999997 h 377.80469 v 38.86524 H 111.51172 Z m 346.76367,5.58789 a 3.7500094,3.7500094 0 0 0 -2.58398,1.09961 3.7500094,3.7500094 0 0 0 0,5.3086 l 7.69921,7.69922 -7.69921,7.69921 a 3.7500094,3.7500094 0 0 0 0,5.30665 3.7500094,3.7500094 0 0 0 5.30078,0 l 7.70508,-7.70118 7.70117,7.70118 a 3.7500094,3.7500094 0 0 0 5.30664,0 3.7500094,3.7500094 0 0 0 0,-5.30665 l -7.70117,-7.69921 7.70117,-7.69922 a 3.7500094,3.7500094 0 0 0 0,-5.3086 3.7500094,3.7500094 0 0 0 -2.56055,-1.09961 3.7500094,3.7500094 0 0 0 -2.74609,1.09961 l -7.70117,7.70118 -7.70508,-7.70118 a 3.7500094,3.7500094 0 0 0 -2.55469,-1.09961 3.7500094,3.7500094 0 0 0 -0.16211,0 z M 111.51172,156.96094 H 489.31641 V 489.11719 H 111.51172 Z m 19.56055,16.78711 a 3.7503845,3.7503845 0 0 0 -3.75,3.75 v 101.43359 a 3.7503845,3.7503845 0 0 0 3.75,3.75 H 232.5 a 3.7503845,3.7503845 0 0 0 3.75,-3.75 V 177.49805 a 3.7503845,3.7503845 0 0 0 -3.75,-3.75 z m 128.57031,0 a 6.4999937,6.4999937 0 0 0 -6.50196,6.5039 6.4999937,6.4999937 0 0 0 6.50196,6.49414 h 211.42578 a 6.4999937,6.4999937 0 0 0 6.50391,-6.49414 6.4999937,6.4999937 0 0 0 -6.50391,-6.5039 z m -124.82031,7.5 H 228.75 v 93.93359 h -93.92773 z m 146.60546,18.41015 a 3.7500094,3.7500094 0 0 0 -3.75,3.75 3.7500094,3.7500094 0 0 0 3.75,3.75 h 188.57032 a 3.7500094,3.7500094 0 0 0 3.75,-3.75 3.7500094,3.7500094 0 0 0 -3.75,-3.75 z m -18.55078,20.41016 a 3.7500094,3.7500094 0 0 0 -3.75,3.75 3.7500094,3.7500094 0 0 0 3.75,3.75 h 207.46094 a 3.7500094,3.7500094 0 0 0 3.75,-3.75 3.7500094,3.7500094 0 0 0 -3.75,-3.75 z m 0,20.41211 a 3.7500094,3.7500094 0 0 0 -3.75,3.75 3.7500094,3.7500094 0 0 0 3.75,3.75 h 207.46094 a 3.7500094,3.7500094 0 0 0 3.75,-3.75 3.7500094,3.7500094 0 0 0 -3.75,-3.75 z m 0,20.41015 a 3.7500094,3.7500094 0 0 0 -3.75,3.75 3.7500094,3.7500094 0 0 0 3.75,3.75 h 207.46094 a 3.7500094,3.7500094 0 0 0 3.75,-3.75 3.7500094,3.7500094 0 0 0 -3.75,-3.75 z m -129.05859,63.21876 a 6.4999937,6.4999937 0 0 0 -6.49609,6.49609 6.4999937,6.4999937 0 0 0 6.49609,6.50391 h 211.43359 a 6.4999937,6.4999937 0 0 0 6.49414,-6.50391 6.4999937,6.4999937 0 0 0 -6.49414,-6.49609 z m 238.57617,0 a 3.7503845,3.7503845 0 0 0 -3.75,3.75 v 101.42773 a 3.7503845,3.7503845 0 0 0 3.75,3.75 h 101.42774 a 3.7503845,3.7503845 0 0 0 3.75,-3.75 V 327.85938 a 3.7503845,3.7503845 0 0 0 -3.75,-3.75 z m 3.75,7.5 h 93.92774 v 93.92773 h -93.92774 z m -222.69726,18.41015 a 3.7500094,3.7500094 0 0 0 -3.75,3.75 3.7500094,3.7500094 0 0 0 3.75,3.75 h 188.57031 a 3.7500094,3.7500094 0 0 0 3.75,-3.75 3.7500094,3.7500094 0 0 0 -3.75,-3.75 z m -18.89063,20.41016 a 3.7500094,3.7500094 0 0 0 -3.75,3.75 3.7500094,3.7500094 0 0 0 3.75,3.75 h 207.46094 a 3.7500094,3.7500094 0 0 0 3.75,-3.75 3.7500094,3.7500094 0 0 0 -3.75,-3.75 z m 0,20.41211 a 3.7500094,3.7500094 0 0 0 -3.75,3.75 3.7500094,3.7500094 0 0 0 3.75,3.75 h 207.46094 a 3.7500094,3.7500094 0 0 0 3.75,-3.75 3.7500094,3.7500094 0 0 0 -3.75,-3.75 z m 0,20.41015 a 3.7500094,3.7500094 0 0 0 -3.75,3.75 3.7500094,3.7500094 0 0 0 3.75,3.75 h 207.46094 a 3.7500094,3.7500094 0 0 0 3.75,-3.75 3.7500094,3.7500094 0 0 0 -3.75,-3.75 z"
       transform="scale(0.26458333)" />
  </g>
</svg>
