<?xml version="1.0" encoding="UTF-8" standalone="no"?>
<!-- Created with Inkscape (http://www.inkscape.org/) -->

<svg
   xmlns:dc="http://purl.org/dc/elements/1.1/"
   xmlns:cc="http://creativecommons.org/ns#"
   xmlns:rdf="http://www.w3.org/1999/02/22-rdf-syntax-ns#"
   xmlns:svg="http://www.w3.org/2000/svg"
   xmlns="http://www.w3.org/2000/svg"
   xmlns:sodipodi="http://sodipodi.sourceforge.net/DTD/sodipodi-0.dtd"
   xmlns:inkscape="http://www.inkscape.org/namespaces/inkscape"
   width="8000"
   height="8000"
   viewBox="0 0 2116.6666 2116.6667"
   version="1.1"
   id="svg8"
   inkscape:version="0.92.3 (2405546, 2018-03-11)"
   sodipodi:docname="Logo_NoText.svg"
   inkscape:export-filename="\\NETWORKSTORAGE\share\SFI\Images\Marketing\Logo\Logo_NoText_small.png"
   inkscape:export-xdpi="24.575998"
   inkscape:export-ydpi="24.575998">
  <sodipodi:namedview
     showguides="false"
     inkscape:snap-smooth-nodes="true"
     id="base"
     pagecolor="#ffffff"
     bordercolor="#666666"
     borderopacity="1.0"
     inkscape:pageopacity="0.0"
     inkscape:pageshadow="2"
     inkscape:zoom="0.056568542"
     inkscape:cx="-517.89541"
     inkscape:cy="5094.0019"
     inkscape:document-units="px"
     inkscape:current-layer="layer3"
     showgrid="false"
     showborder="true"
     units="px"
     inkscape:window-width="1920"
     inkscape:window-height="1057"
     inkscape:window-x="-8"
     inkscape:window-y="892"
     inkscape:window-maximized="1"
     inkscape:snap-global="false"
     inkscape:pagecheckerboard="true" />
  <defs
     id="defs2">
    <inkscape:path-effect
       bendpath4="M -256.48874,299.42438 V 467.46735"
       bendpath3="M -256.48874,467.46735 H 218.30618"
       bendpath2="M 218.30618,299.42438 V 467.46735"
       bendpath1="M -256.48874,299.42438 H 218.30618"
       xx="true"
       yy="true"
       is_visible="true"
       id="path-effect1026"
       effect="envelope" />
    <inkscape:path-effect
       bendpath1-nodetypes="cc"
       bendpath4="M -2.6824795,2.3679333 V 123.94973"
       bendpath3="M -2.6824795,123.94973 H 200.36164"
       bendpath2="M 200.36164,2.3679333 V 123.94973"
       bendpath1="M 0,0 H 1"
       xx="true"
       yy="true"
       is_visible="true"
       id="path-effect5038"
       effect="envelope" />
  </defs>
  <metadata
     id="metadata5">
    <rdf:RDF>
      <cc:Work
         rdf:about="">
        <dc:format>image/svg+xml</dc:format>
        <dc:type
           rdf:resource="http://purl.org/dc/dcmitype/StillImage" />
        <dc:title />
      </cc:Work>
    </rdf:RDF>
  </metadata>
  <g
     inkscape:groupmode="layer"
     id="layer3"
     inkscape:label="Background"
     style="display:inline"
     transform="translate(0,1819.6667)">
    <rect
       style="opacity:1;fill:#0000ff;fill-opacity:1;stroke:none;stroke-width:56.79200363;stroke-linecap:round;stroke-linejoin:round;stroke-miterlimit:4;stroke-dasharray:none;stroke-dashoffset:0"
       id="rect1701"
       width="2116.6667"
       height="2116.6667"
       x="0"
       y="-1819.5668"
       inkscape:export-xdpi="96"
       inkscape:export-ydpi="96" />
  </g>
  <g
     style="display:inline"
     inkscape:label="Salt copy"
     id="g1971"
     inkscape:groupmode="layer"
     transform="translate(0,1819.6667)">
    <flowRoot
       xml:space="preserve"
       id="flowRoot1999"
       style="font-style:normal;font-weight:normal;font-size:192px;line-height:1.25;font-family:sans-serif;letter-spacing:0px;word-spacing:0px;fill:#ffffff;fill-opacity:1;stroke:none"
       transform="scale(0.26458333)"><flowRegion
         id="flowRegion2001"
         style="font-size:192px;fill:#ffffff"><rect
           id="rect2003"
           width="3406.2344"
           height="751.55347"
           x="-1272.7922"
           y="3474.1548"
           style="font-size:192px;fill:#ffffff" /></flowRegion><flowPara
         id="flowPara2005" /></flowRoot>    <g
       aria-label="SALT FREE"
       transform="matrix(0.26458333,0,0,0.26458333,-15.990663,-40.435373)"
       style="font-style:normal;font-weight:normal;font-size:40px;line-height:1.25;font-family:sans-serif;letter-spacing:0px;word-spacing:0px;fill:#000000;fill-opacity:1;stroke:none"
       id="flowRoot2007" />
    <g
       aria-label="INTERACTIVE"
       transform="matrix(0.80329594,0,0,0.80329594,1306.0126,-3161.7238)"
       style="font-style:normal;font-weight:normal;font-size:40px;line-height:1.25;font-family:sans-serif;letter-spacing:0px;word-spacing:0px;fill:#000000;fill-opacity:1;stroke:none"
       id="flowRoot2037"
       inkscape:export-xdpi="96"
       inkscape:export-ydpi="96" />
    <g
       id="g4532"
       transform="matrix(1.5973279,0,0,1.5973279,-538.99459,1256.5815)">
      <path
         sodipodi:nodetypes="scccccccccccccccccccsccccccccccccccccscccccccsccscccccccccccccccccccccccscccccccccccccccccccccsccccccccccccccccccccccccccccccccc"
         inkscape:export-ydpi="96"
         inkscape:export-xdpi="96"
         inkscape:connector-curvature="0"
         id="path1969"
         d="m 996.5547,-1799.5468 c -201.13977,0 -267.19831,78.3004 -279.0998,122.7177 -6.13492,22.8957 -8.05618,51.133 -3.8486,75.3983 2.10376,12.1328 5.67234,23.3538 12.20319,32.5304 3.86757,5.4343 9.23599,10.0925 15.54032,13.0002 -5.31378,16.4678 -11.88273,28.8488 -16.3154,39.6642 l 59.08619,57.4686 1.79955,-11.7089 h 428.15835 l 77.6734,505.44883 28.6692,27.88487 -82.4744,-536.7162 c 7.3924,-0.8793 13.5096,-2.163 18.7912,-4.0778 7.5953,-2.7534 14.9469,-9.0848 16.6997,-17.1139 1.7529,-8.0291 -0.583,-14.4008 -3.0546,-20.8669 -3.9904,-10.4389 -10.0566,-22.2181 -15.2548,-37.5933 7.0331,-3.3717 12.8491,-8.8655 16.808,-15.1528 6.5453,-10.395 9.686,-22.8657 11.3685,-35.9052 3.3649,-26.0792 0.5803,-54.4022 -4.2047,-72.2604 -5.5353,-20.6582 -25.971,-50.1588 -70.1567,-75.9555 -44.1856,-25.7968 -112.0274,-46.7622 -212.3886,-46.7622 z m 0,24.099 c 97.0075,0 160.4167,20.2276 200.2388,43.4767 39.822,23.2492 56.1516,50.6444 59.0266,61.3737 3.625,13.5291 6.413,41.0404 3.5865,62.9458 -1.4132,10.9527 -4.3122,20.5071 -7.8619,26.1447 -3.209,5.0964 -5.6047,7.0259 -10.0914,7.3505 -0.417,-0.054 -0.837,-0.095 -1.2646,-0.105 v 0 c -0.7806,-0.019 -1.5408,0.039 -2.2765,0.1601 H 965.09126 c -16.29476,-0.2305 -16.29476,24.3292 0,24.0988 H 1230.921 c 6.135,19.5112 13.5854,33.8792 16.9524,42.6876 1.7381,4.5471 1.6928,6.4522 1.8153,6.417 -0.2733,0.056 -0.1846,-0.05 -1.1689,0.3075 -6.857,2.4859 -29.3492,4.4282 -69.3266,4.5845 -39.9774,0.1564 -98.2715,-0.6824 -181.45237,-0.6824 -83.92701,0 -142.5921,0.8678 -182.7106,0.753 -40.11845,-0.115 -62.57644,-2.0377 -69.15408,-4.4228 -0.60473,-0.2193 -0.36909,-0.045 -0.65105,-0.1188 0.13783,-0.1455 0.14664,-1.7896 1.91408,-6.155 3.78247,-9.3417 12.11418,-24.849 18.45226,-46.0859 h 59.11598 c 16.29469,0.2304 16.29469,-24.3294 0,-24.0989 h -69.17757 c -4.40809,0 -6.75002,-1.3661 -10.08667,-6.0545 -3.33672,-4.6884 -6.37921,-12.8282 -8.08791,-22.6822 -3.41729,-19.7079 -1.74386,-45.9418 3.37482,-65.0449 7.78763,-29.0638 60.93592,-104.8506 255.82461,-104.8506 z m -238.13957,325.2956 -96.22611,626.1831 c -0.81959,5.33891 2.0129,10.57104 6.93165,12.80252 l 179.96022,81.68993 c 2.84871,2.13284 6.65208,2.93314 10.162,2.28737 h 281.36381 c 3.5995,0.70803 7.527,-0.10877 10.4287,-2.33925 l 179.8442,-81.63805 c 4.9187,-2.23148 7.7512,-7.46361 6.9315,-12.80252 l -11.3167,-73.64744 -28.6692,-27.88454 14.7778,96.16482 -158.6132,71.99996 -2.4398,-32.25899 128.6702,-58.40839 -17.0935,-111.24704 -186.9547,-181.83988 c -1.2519,0.6722 -2.506,1.3362 -3.7545,2.0305 -3.9618,2.2027 -7.9037,4.5159 -11.8282,6.9502 -3.9244,2.4343 -7.8306,4.9892 -11.7152,7.6707 -3.8847,2.6814 -7.7488,5.4901 -11.5913,8.4345 -3.8425,2.9441 -7.6647,6.023 -11.4627,9.2458 -3.798,3.2228 -7.5718,6.5901 -11.323,10.1071 -3.7511,3.517 -7.4768,7.1852 -11.1787,11.0121 -3.39059,3.5052 -6.85482,6.7972 -10.38794,9.8831 -3.53305,3.0853 -7.13642,5.9632 -10.80215,8.6401 -3.66585,2.6769 -7.39467,5.1528 -11.18333,7.432 -3.78876,2.2792 -7.63912,4.3628 -11.54111,6.2552 -3.90195,1.8927 -7.85586,3.5947 -11.86114,5.1119 -4.00542,1.5168 -8.06182,2.8481 -12.16087,4.0006 -4.09898,1.1525 -8.24159,2.1256 -12.42443,2.9246 -4.18274,0.7985 -8.40447,1.4234 -12.66129,1.8794 -4.25692,0.4563 -8.54875,0.7432 -12.87001,0.8677 -1.29324,0.036 -2.59105,0.055 -3.88939,0.064 l 21.41753,-259.314 -22.38559,-21.7738 -23.0963,279.649 c -3.85583,-0.4746 -7.72683,-1.0566 -11.60858,-1.7573 -4.45548,-0.8043 -8.92422,-1.7558 -13.40501,-2.8476 -4.48077,-1.0917 -8.97152,-2.3247 -13.46774,-3.6933 -4.49629,-1.3684 -9.00038,-2.8719 -13.50228,-4.5059 -4.50192,-1.6343 -9.00446,-3.3986 -13.50228,-5.2873 -4.4978,-1.8888 -8.98856,-3.902 -13.47248,-6.0342 -4.48389,-2.1323 -8.95883,-4.3832 -13.41913,-6.748 -4.4603,-2.3648 -8.90589,-4.8441 -13.33276,-7.4305 -2.62986,-1.5366 -5.23742,-3.1861 -7.85255,-4.7979 l -36.12952,235.11942 128.9996,58.55743 -2.65618,32.16183 -158.7263,-72.05197 92.23003,-600.18611 z m 153.55033,25.1925 c -6.18274,0.2034 -11.20856,5.0538 -11.629,11.2255 l -5.19789,62.9474 22.38562,21.7738 6.83428,-82.741 c 0.70126,-7.2402 -5.12293,-13.4465 -12.39301,-13.2057 z m 186.11364,74.5855 c -7.1257,-0.066 -12.7515,6.0314 -12.1138,13.1288 l 13.9714,184.7221 c -0.2207,0.094 -0.4413,0.1913 -0.6621,0.2854 l 157.7786,153.46107 -28.5719,-185.93797 c -2.5393,0.3777 -5.0853,0.7317 -7.6219,1.1203 -8.457,1.2955 -16.8981,2.662 -25.3132,4.1625 -8.4151,1.5001 -16.8052,3.1335 -25.1595,4.9639 -8.3543,1.8305 -16.6728,3.8565 -24.9477,6.1423 -4.1374,1.1431 -8.2649,2.3518 -12.3789,3.6321 -3.2226,1.0031 -6.4342,2.0642 -9.6411,3.16 l -13.4269,-177.5253 c -0.3863,-6.3132 -5.5881,-11.2548 -11.913,-11.3152 z m 30.1095,571.38334 2.0945,27.70274 H 869.80807 l 2.27816,-27.57697 c 85.16133,0 184.15797,-0.12577 256.10237,-0.12577 z"
         style="color:#000000;font-style:normal;font-variant:normal;font-weight:normal;font-stretch:normal;font-size:medium;line-height:normal;font-family:sans-serif;font-variant-ligatures:normal;font-variant-position:normal;font-variant-caps:normal;font-variant-numeric:normal;font-variant-alternates:normal;font-feature-settings:normal;text-indent:0;text-align:start;text-decoration:none;text-decoration-line:none;text-decoration-style:solid;text-decoration-color:#000000;letter-spacing:normal;word-spacing:normal;text-transform:none;writing-mode:lr-tb;direction:ltr;text-orientation:mixed;dominant-baseline:auto;baseline-shift:baseline;text-anchor:start;white-space:normal;shape-padding:0;clip-rule:nonzero;display:inline;overflow:visible;visibility:visible;opacity:1;isolation:auto;mix-blend-mode:normal;color-interpolation:sRGB;color-interpolation-filters:linearRGB;solid-color:#000000;solid-opacity:1;vector-effect:none;fill:#ffffff;fill-opacity:1;fill-rule:nonzero;stroke:none;stroke-width:24.09887695;stroke-linecap:round;stroke-linejoin:round;stroke-miterlimit:4;stroke-dasharray:none;stroke-dashoffset:0;stroke-opacity:1;color-rendering:auto;image-rendering:auto;shape-rendering:auto;text-rendering:auto;enable-background:accumulate" />
      <path
         inkscape:export-ydpi="96"
         inkscape:export-xdpi="96"
         sodipodi:nodetypes="cc"
         inkscape:connector-curvature="0"
         id="path1987"
         d="M 466.85258,-1781.7995 1533.1475,-744.68194"
         style="fill:none;stroke:#ffffff;stroke-width:24.09887695;stroke-linecap:round;stroke-linejoin:round;stroke-miterlimit:4;stroke-dasharray:none;stroke-opacity:1" />
      <path
         inkscape:export-ydpi="96"
         inkscape:export-xdpi="96"
         inkscape:connector-curvature="0"
         d="m 1106.6055,-1710.3455 a 18.61042,3.2365946 0 0 1 -18.6103,3.2366 18.61042,3.2365946 0 0 1 -18.6106,-3.2366 18.61042,3.2365946 0 0 1 18.6106,-3.2366 18.61042,3.2365946 0 0 1 18.6103,3.2366 z m -175.98971,0 a 18.61042,3.2365946 0 0 1 -18.61056,3.2366 18.61042,3.2365946 0 0 1 -18.61055,-3.2366 18.61042,3.2365946 0 0 1 18.61055,-3.2366 18.61042,3.2365946 0 0 1 18.61056,3.2366 z m 88.31261,-25.0837 a 18.61042,3.2365946 0 0 1 -18.6103,3.2367 18.61042,3.2365946 0 0 1 -18.61057,-3.2367 18.61042,3.2365946 0 0 1 18.61057,-3.2366 18.61042,3.2365946 0 0 1 18.6103,3.2366 z"
         style="display:inline;opacity:1;fill:#ffffff;fill-opacity:1;stroke:#ffffff;stroke-width:24.09887695;stroke-linecap:round;stroke-linejoin:round;stroke-miterlimit:4;stroke-dasharray:none;stroke-dashoffset:0"
         id="ellipse2119-5" />
    </g>
  </g>
</svg>
